<svg width="113" height="200" viewBox="0 0 113 200" fill="none" xmlns="http://www.w3.org/2000/svg">
<path fill-rule="evenodd" clip-rule="evenodd" d="M66.7969 0H87.8906V9.83607H112.5V45.9016H100.077C99.1715 45.9016 98.4375 46.6356 98.4375 47.541C98.4375 48.4464 99.1715 49.1803 100.077 49.1803H112.5V193.443H73.8281L66.7969 200H24.6094L17.5781 193.443H0V49.1803H12.4232C13.3285 49.1803 14.0625 48.4464 14.0625 47.541C14.0625 46.6356 13.3285 45.9016 12.4232 45.9016H0V9.83607H66.7969V0ZM61.5234 193.443C64.4359 193.443 66.7969 191.241 66.7969 188.525C66.7969 185.808 64.4359 183.607 61.5234 183.607C58.611 183.607 56.25 185.808 56.25 188.525C56.25 191.241 58.611 193.443 61.5234 193.443ZM105.469 21.3115C105.469 24.0276 103.108 26.2295 100.195 26.2295C97.2829 26.2295 94.9219 24.0276 94.9219 21.3115C94.9219 18.5953 97.2829 16.3934 100.195 16.3934C103.108 16.3934 105.469 18.5953 105.469 21.3115ZM12.3047 26.2295C15.2171 26.2295 17.5781 24.0276 17.5781 21.3115C17.5781 18.5953 15.2171 16.3934 12.3047 16.3934C9.39225 16.3934 7.03125 18.5953 7.03125 21.3115C7.03125 24.0276 9.39225 26.2295 12.3047 26.2295ZM108.984 188.525C108.984 189.43 108.197 190.164 107.227 190.164C106.256 190.164 105.469 189.43 105.469 188.525C105.469 187.619 106.256 186.885 107.227 186.885C108.197 186.885 108.984 187.619 108.984 188.525ZM107.227 170.492C108.197 170.492 108.984 169.758 108.984 168.852C108.984 167.947 108.197 167.213 107.227 167.213C106.256 167.213 105.469 167.947 105.469 168.852C105.469 169.758 106.256 170.492 107.227 170.492ZM108.984 175.41C108.984 176.315 108.197 177.049 107.227 177.049C106.256 177.049 105.469 176.315 105.469 175.41C105.469 174.504 106.256 173.77 107.227 173.77C108.197 173.77 108.984 174.504 108.984 175.41ZM107.227 183.607C108.197 183.607 108.984 182.873 108.984 181.967C108.984 181.062 108.197 180.328 107.227 180.328C106.256 180.328 105.469 181.062 105.469 181.967C105.469 182.873 106.256 183.607 107.227 183.607ZM108.984 162.295C108.984 163.2 108.197 163.934 107.227 163.934C106.256 163.934 105.469 163.2 105.469 162.295C105.469 161.39 106.256 160.656 107.227 160.656C108.197 160.656 108.984 161.39 108.984 162.295ZM107.227 144.262C108.197 144.262 108.984 143.528 108.984 142.623C108.984 141.718 108.197 140.984 107.227 140.984C106.256 140.984 105.469 141.718 105.469 142.623C105.469 143.528 106.256 144.262 107.227 144.262ZM108.984 149.18C108.984 150.086 108.197 150.82 107.227 150.82C106.256 150.82 105.469 150.086 105.469 149.18C105.469 148.275 106.256 147.541 107.227 147.541C108.197 147.541 108.984 148.275 108.984 149.18ZM107.227 157.377C108.197 157.377 108.984 156.643 108.984 155.738C108.984 154.832 108.197 154.098 107.227 154.098C106.256 154.098 105.469 154.832 105.469 155.738C105.469 156.643 106.256 157.377 107.227 157.377ZM108.984 136.066C108.984 136.971 108.197 137.705 107.227 137.705C106.256 137.705 105.469 136.971 105.469 136.066C105.469 135.16 106.256 134.426 107.227 134.426C108.197 134.426 108.984 135.16 108.984 136.066ZM107.227 118.033C108.197 118.033 108.984 117.299 108.984 116.393C108.984 115.488 108.197 114.754 107.227 114.754C106.256 114.754 105.469 115.488 105.469 116.393C105.469 117.299 106.256 118.033 107.227 118.033ZM108.984 122.951C108.984 123.856 108.197 124.59 107.227 124.59C106.256 124.59 105.469 123.856 105.469 122.951C105.469 122.045 106.256 121.311 107.227 121.311C108.197 121.311 108.984 122.045 108.984 122.951ZM107.227 131.148C108.197 131.148 108.984 130.414 108.984 129.508C108.984 128.603 108.197 127.869 107.227 127.869C106.256 127.869 105.469 128.603 105.469 129.508C105.469 130.414 106.256 131.148 107.227 131.148ZM108.984 109.836C108.984 110.741 108.197 111.475 107.227 111.475C106.256 111.475 105.469 110.741 105.469 109.836C105.469 108.931 106.256 108.197 107.227 108.197C108.197 108.197 108.984 108.931 108.984 109.836ZM107.227 91.8033C108.197 91.8033 108.984 91.0693 108.984 90.1639C108.984 89.2586 108.197 88.5246 107.227 88.5246C106.256 88.5246 105.469 89.2586 105.469 90.1639C105.469 91.0693 106.256 91.8033 107.227 91.8033ZM108.984 96.7213C108.984 97.6267 108.197 98.3607 107.227 98.3607C106.256 98.3607 105.469 97.6267 105.469 96.7213C105.469 95.8159 106.256 95.082 107.227 95.082C108.197 95.082 108.984 95.8159 108.984 96.7213ZM107.227 104.918C108.197 104.918 108.984 104.184 108.984 103.279C108.984 102.373 108.197 101.639 107.227 101.639C106.256 101.639 105.469 102.373 105.469 103.279C105.469 104.184 106.256 104.918 107.227 104.918ZM108.984 83.6066C108.984 84.5119 108.197 85.2459 107.227 85.2459C106.256 85.2459 105.469 84.5119 105.469 83.6066C105.469 82.7012 106.256 81.9672 107.227 81.9672C108.197 81.9672 108.984 82.7012 108.984 83.6066ZM107.227 65.5738C108.197 65.5738 108.984 64.8398 108.984 63.9344C108.984 63.029 108.197 62.2951 107.227 62.2951C106.256 62.2951 105.469 63.029 105.469 63.9344C105.469 64.8398 106.256 65.5738 107.227 65.5738ZM108.984 70.4918C108.984 71.3972 108.197 72.1311 107.227 72.1311C106.256 72.1311 105.469 71.3972 105.469 70.4918C105.469 69.5864 106.256 68.8525 107.227 68.8525C108.197 68.8525 108.984 69.5864 108.984 70.4918ZM107.227 78.6885C108.197 78.6885 108.984 77.9546 108.984 77.0492C108.984 76.1438 108.197 75.4098 107.227 75.4098C106.256 75.4098 105.469 76.1438 105.469 77.0492C105.469 77.9546 106.256 78.6885 107.227 78.6885ZM101.953 188.525C101.953 189.43 101.166 190.164 100.195 190.164C99.2245 190.164 98.4375 189.43 98.4375 188.525C98.4375 187.619 99.2245 186.885 100.195 186.885C101.166 186.885 101.953 187.619 101.953 188.525ZM100.195 170.492C101.166 170.492 101.953 169.758 101.953 168.852C101.953 167.947 101.166 167.213 100.195 167.213C99.2245 167.213 98.4375 167.947 98.4375 168.852C98.4375 169.758 99.2245 170.492 100.195 170.492ZM101.953 175.41C101.953 176.315 101.166 177.049 100.195 177.049C99.2245 177.049 98.4375 176.315 98.4375 175.41C98.4375 174.504 99.2245 173.77 100.195 173.77C101.166 173.77 101.953 174.504 101.953 175.41ZM100.195 183.607C101.166 183.607 101.953 182.873 101.953 181.967C101.953 181.062 101.166 180.328 100.195 180.328C99.2245 180.328 98.4375 181.062 98.4375 181.967C98.4375 182.873 99.2245 183.607 100.195 183.607ZM101.953 162.295C101.953 163.2 101.166 163.934 100.195 163.934C99.2245 163.934 98.4375 163.2 98.4375 162.295C98.4375 161.39 99.2245 160.656 100.195 160.656C101.166 160.656 101.953 161.39 101.953 162.295ZM100.195 144.262C101.166 144.262 101.953 143.528 101.953 142.623C101.953 141.718 101.166 140.984 100.195 140.984C99.2245 140.984 98.4375 141.718 98.4375 142.623C98.4375 143.528 99.2245 144.262 100.195 144.262ZM101.953 149.18C101.953 150.086 101.166 150.82 100.195 150.82C99.2245 150.82 98.4375 150.086 98.4375 149.18C98.4375 148.275 99.2245 147.541 100.195 147.541C101.166 147.541 101.953 148.275 101.953 149.18ZM100.195 157.377C101.166 157.377 101.953 156.643 101.953 155.738C101.953 154.832 101.166 154.098 100.195 154.098C99.2245 154.098 98.4375 154.832 98.4375 155.738C98.4375 156.643 99.2245 157.377 100.195 157.377ZM101.953 136.066C101.953 136.971 101.166 137.705 100.195 137.705C99.2245 137.705 98.4375 136.971 98.4375 136.066C98.4375 135.16 99.2245 134.426 100.195 134.426C101.166 134.426 101.953 135.16 101.953 136.066ZM100.195 118.033C101.166 118.033 101.953 117.299 101.953 116.393C101.953 115.488 101.166 114.754 100.195 114.754C99.2245 114.754 98.4375 115.488 98.4375 116.393C98.4375 117.299 99.2245 118.033 100.195 118.033ZM101.953 122.951C101.953 123.856 101.166 124.59 100.195 124.59C99.2245 124.59 98.4375 123.856 98.4375 122.951C98.4375 122.045 99.2245 121.311 100.195 121.311C101.166 121.311 101.953 122.045 101.953 122.951ZM100.195 131.148C101.166 131.148 101.953 130.414 101.953 129.508C101.953 128.603 101.166 127.869 100.195 127.869C99.2245 127.869 98.4375 128.603 98.4375 129.508C98.4375 130.414 99.2245 131.148 100.195 131.148ZM101.953 109.836C101.953 110.741 101.166 111.475 100.195 111.475C99.2245 111.475 98.4375 110.741 98.4375 109.836C98.4375 108.931 99.2245 108.197 100.195 108.197C101.166 108.197 101.953 108.931 101.953 109.836ZM100.195 91.8033C101.166 91.8033 101.953 91.0693 101.953 90.1639C101.953 89.2586 101.166 88.5246 100.195 88.5246C99.2245 88.5246 98.4375 89.2586 98.4375 90.1639C98.4375 91.0693 99.2245 91.8033 100.195 91.8033ZM101.953 96.7213C101.953 97.6267 101.166 98.3607 100.195 98.3607C99.2245 98.3607 98.4375 97.6267 98.4375 96.7213C98.4375 95.8159 99.2245 95.082 100.195 95.082C101.166 95.082 101.953 95.8159 101.953 96.7213ZM100.195 104.918C101.166 104.918 101.953 104.184 101.953 103.279C101.953 102.373 101.166 101.639 100.195 101.639C99.2245 101.639 98.4375 102.373 98.4375 103.279C98.4375 104.184 99.2245 104.918 100.195 104.918ZM101.953 83.6066C101.953 84.5119 101.166 85.2459 100.195 85.2459C99.2245 85.2459 98.4375 84.5119 98.4375 83.6066C98.4375 82.7012 99.2245 81.9672 100.195 81.9672C101.166 81.9672 101.953 82.7012 101.953 83.6066ZM100.195 65.5738C101.166 65.5738 101.953 64.8398 101.953 63.9344C101.953 63.029 101.166 62.2951 100.195 62.2951C99.2245 62.2951 98.4375 63.029 98.4375 63.9344C98.4375 64.8398 99.2245 65.5738 100.195 65.5738ZM101.953 70.4918C101.953 71.3972 101.166 72.1311 100.195 72.1311C99.2245 72.1311 98.4375 71.3972 98.4375 70.4918C98.4375 69.5864 99.2245 68.8525 100.195 68.8525C101.166 68.8525 101.953 69.5864 101.953 70.4918ZM100.195 78.6885C101.166 78.6885 101.953 77.9546 101.953 77.0492C101.953 76.1438 101.166 75.4098 100.195 75.4098C99.2245 75.4098 98.4375 76.1438 98.4375 77.0492C98.4375 77.9546 99.2245 78.6885 100.195 78.6885ZM24.6094 47.541C24.6094 46.6356 25.3433 45.9016 26.2487 45.9016H65.1575C66.0629 45.9016 66.7969 46.6356 66.7969 47.541C66.7969 48.4464 66.0629 49.1803 65.1575 49.1803H26.2487C25.3433 49.1803 24.6094 48.4464 24.6094 47.541ZM52.2605 65.5738C48.639 65.5738 45.7031 68.5096 45.7031 72.1311C45.7031 75.7527 48.639 78.6885 52.2605 78.6885H70.7864C74.4079 78.6885 77.3438 75.7527 77.3438 72.1311C77.3438 68.5096 74.4079 65.5738 70.7864 65.5738H52.2605ZM73.8281 39.3443H91.4062V55.7377H73.8281V39.3443ZM42.1875 19.6721H38.6719V16.3934H35.1562V19.6721H31.6406V22.9508H28.125V26.2295H31.6406V29.5082H28.125V32.7869H31.6406V36.0656H35.1562V39.3443H38.6719V36.0656H42.1875V39.3443H45.7031V36.0656H49.2188V32.7869H52.7344V29.5082H49.2188V26.2295H52.7344V22.9508H49.2188V19.6721H45.7031V16.3934H42.1875V19.6721ZM70.3125 3.27868H84.375V26.2295H70.3125V3.27868ZM56.25 88.5246H38.6719V91.8033H31.6406V95.082H38.6719V98.3607H31.6406V101.639H38.6719V104.918H56.25V101.639H63.2812V98.3607H56.25V95.082H63.2812V91.8033H56.25V88.5246ZM17.5781 127.869L21.0938 127.869V121.311H24.6094V127.869H28.125V121.311H31.6406V127.869H35.1562V121.311H38.6719V127.869H42.1875V121.311H45.7031V127.869H49.2188V121.311H52.7344V127.869L56.25 127.869V131.148H63.2812V134.426H56.25V137.705H63.2812V140.984H56.25V144.262H63.2812V147.541H56.25V150.82H63.2812V154.098H56.25V157.377H63.2812V160.656H56.25V163.934L52.7344 163.934V170.492H49.2188V168.75V165.234V163.934H45.7031V165.234H42.1875V163.934H38.6719V165.234H35.1562V163.934H31.6406V165.234H28.125V163.934H24.6094V165.234V168.75V170.492H21.0938V163.934L17.5781 163.934V160.656H10.5469V157.377H17.5781V154.098H10.5469V150.82H17.5781V147.541H10.5469V144.262H17.5781V140.984H10.5469V137.705H17.5781V134.426H10.5469V131.148H17.5781V127.869ZM28.125 168.75V170.492H31.6406V168.75H28.125ZM35.1562 168.75V170.492H38.6719V168.75H35.1562ZM42.1875 168.75V170.492H45.7031V168.75H42.1875ZM77.3438 88.5246V91.8033H73.8281V95.082H77.3438V98.3607H73.8281V101.639H77.3438V104.918H73.8281V108.197H77.3438V111.475H73.8281V114.754H77.3438V118.033H73.8281V121.311H77.3438V124.59H73.8281V127.869H77.3438V131.148H73.8281V134.426H77.3438V137.705H73.8281V140.984H77.3438V144.262H73.8281V147.541H77.3438V150.82H73.8281V154.098H77.3438V157.377H73.8281V160.656H77.3438V163.934H73.8281V167.213H77.3438V170.492H87.8906V167.213H91.4062V163.934H87.8906V160.656H91.4062V157.377H87.8906V154.098H91.4062V150.82H87.8906V147.541H91.4062V144.262H87.8906V140.984H91.4062V137.705H87.8906V134.426H91.4062V131.148H87.8906V127.869H91.4062V124.59H87.8906V121.311H91.4062V118.033H87.8906V114.754H91.4062V111.475H87.8906V108.197H91.4062V104.918H87.8906V101.639H91.4062V98.3607H87.8906V95.082H91.4062V91.8033H87.8906V88.5246H77.3438ZM10.5469 72.1311H24.6094V78.6885H10.5469V72.1311ZM24.6094 98.3607H10.5469V104.918H24.6094V98.3607ZM38.6719 183.607V190.164H24.6094V183.607H38.6719ZM24.6094 85.2459H10.5469V91.8033H24.6094V85.2459ZM87.8906 47.541C87.8906 50.2571 85.5296 52.459 82.6172 52.459C79.7048 52.459 77.3438 50.2571 77.3438 47.541C77.3438 44.8248 79.7048 42.6229 82.6172 42.6229C85.5296 42.6229 87.8906 44.8248 87.8906 47.541ZM35.1562 144.141H24.6094V154.688H35.1562V144.141ZM49.2188 144.141V147.656H42.1875V144.141H49.2188ZM49.2188 154.688V151.172H42.1875V154.688H49.2188ZM24.6094 158.203H49.2188V161.719H24.6094V158.203Z" fill="#46454C"/>
</svg>
