<svg width="105" height="200" viewBox="0 0 105 200" fill="none" xmlns="http://www.w3.org/2000/svg">
<path fillRule="evenodd" clipRule="evenodd" d="M62.2951 0H81.9672V9.83607H104.918V45.9016H93.4426C92.5372 45.9016 91.8033 46.6356 91.8033 47.541C91.8033 48.4464 92.5372 49.1803 93.4426 49.1803H104.918V193.443L68.8525 193.443L62.2951 200H22.9508L16.3934 193.443L0 193.443V49.1803H11.4754C12.3808 49.1803 13.1148 48.4464 13.1148 47.541C13.1148 46.6356 12.3808 45.9016 11.4754 45.9016H0V9.83607H62.2951V0ZM57.377 193.443C60.0932 193.443 62.2951 191.241 62.2951 188.525C62.2951 185.808 60.0932 183.607 57.377 183.607C54.6609 183.607 52.459 185.808 52.459 188.525C52.459 191.241 54.6609 193.443 57.377 193.443ZM98.3607 21.3115C98.3607 24.0276 96.1588 26.2295 93.4426 26.2295C90.7265 26.2295 88.5246 24.0276 88.5246 21.3115C88.5246 18.5953 90.7265 16.3934 93.4426 16.3934C96.1588 16.3934 98.3607 18.5953 98.3607 21.3115ZM11.4754 26.2295C14.1916 26.2295 16.3934 24.0276 16.3934 21.3115C16.3934 18.5953 14.1916 16.3934 11.4754 16.3934C8.75926 16.3934 6.55738 18.5953 6.55738 21.3115C6.55738 24.0276 8.75926 26.2295 11.4754 26.2295ZM101.639 188.525C101.639 189.43 100.905 190.164 100 190.164C99.0946 190.164 98.3607 189.43 98.3607 188.525C98.3607 187.619 99.0946 186.885 100 186.885C100.905 186.885 101.639 187.619 101.639 188.525ZM100 170.492C100.905 170.492 101.639 169.758 101.639 168.852C101.639 167.947 100.905 167.213 100 167.213C99.0946 167.213 98.3607 167.947 98.3607 168.852C98.3607 169.758 99.0946 170.492 100 170.492ZM101.639 175.41C101.639 176.315 100.905 177.049 100 177.049C99.0946 177.049 98.3607 176.315 98.3607 175.41C98.3607 174.504 99.0946 173.77 100 173.77C100.905 173.77 101.639 174.504 101.639 175.41ZM100 183.607C100.905 183.607 101.639 182.873 101.639 181.967C101.639 181.062 100.905 180.328 100 180.328C99.0946 180.328 98.3607 181.062 98.3607 181.967C98.3607 182.873 99.0946 183.607 100 183.607ZM101.639 162.295C101.639 163.2 100.905 163.934 100 163.934C99.0946 163.934 98.3607 163.2 98.3607 162.295C98.3607 161.39 99.0946 160.656 100 160.656C100.905 160.656 101.639 161.39 101.639 162.295ZM100 144.262C100.905 144.262 101.639 143.528 101.639 142.623C101.639 141.718 100.905 140.984 100 140.984C99.0946 140.984 98.3607 141.718 98.3607 142.623C98.3607 143.528 99.0946 144.262 100 144.262ZM101.639 149.18C101.639 150.086 100.905 150.82 100 150.82C99.0946 150.82 98.3607 150.086 98.3607 149.18C98.3607 148.275 99.0946 147.541 100 147.541C100.905 147.541 101.639 148.275 101.639 149.18ZM100 157.377C100.905 157.377 101.639 156.643 101.639 155.738C101.639 154.832 100.905 154.098 100 154.098C99.0946 154.098 98.3607 154.832 98.3607 155.738C98.3607 156.643 99.0946 157.377 100 157.377ZM101.639 136.066C101.639 136.971 100.905 137.705 100 137.705C99.0946 137.705 98.3607 136.971 98.3607 136.066C98.3607 135.16 99.0946 134.426 100 134.426C100.905 134.426 101.639 135.16 101.639 136.066ZM100 118.033C100.905 118.033 101.639 117.299 101.639 116.393C101.639 115.488 100.905 114.754 100 114.754C99.0946 114.754 98.3607 115.488 98.3607 116.393C98.3607 117.299 99.0946 118.033 100 118.033ZM101.639 122.951C101.639 123.856 100.905 124.59 100 124.59C99.0946 124.59 98.3607 123.856 98.3607 122.951C98.3607 122.045 99.0946 121.311 100 121.311C100.905 121.311 101.639 122.045 101.639 122.951ZM100 131.148C100.905 131.148 101.639 130.414 101.639 129.508C101.639 128.603 100.905 127.869 100 127.869C99.0946 127.869 98.3607 128.603 98.3607 129.508C98.3607 130.414 99.0946 131.148 100 131.148ZM101.639 109.836C101.639 110.741 100.905 111.475 100 111.475C99.0946 111.475 98.3607 110.741 98.3607 109.836C98.3607 108.931 99.0946 108.197 100 108.197C100.905 108.197 101.639 108.931 101.639 109.836ZM100 91.8033C100.905 91.8033 101.639 91.0693 101.639 90.1639C101.639 89.2586 100.905 88.5246 100 88.5246C99.0946 88.5246 98.3607 89.2586 98.3607 90.1639C98.3607 91.0693 99.0946 91.8033 100 91.8033ZM101.639 96.7213C101.639 97.6267 100.905 98.3607 100 98.3607C99.0946 98.3607 98.3607 97.6267 98.3607 96.7213C98.3607 95.8159 99.0946 95.082 100 95.082C100.905 95.082 101.639 95.8159 101.639 96.7213ZM100 104.918C100.905 104.918 101.639 104.184 101.639 103.279C101.639 102.373 100.905 101.639 100 101.639C99.0946 101.639 98.3607 102.373 98.3607 103.279C98.3607 104.184 99.0946 104.918 100 104.918ZM101.639 83.6066C101.639 84.5119 100.905 85.2459 100 85.2459C99.0946 85.2459 98.3607 84.5119 98.3607 83.6066C98.3607 82.7012 99.0946 81.9672 100 81.9672C100.905 81.9672 101.639 82.7012 101.639 83.6066ZM100 65.5738C100.905 65.5738 101.639 64.8398 101.639 63.9344C101.639 63.029 100.905 62.2951 100 62.2951C99.0946 62.2951 98.3607 63.029 98.3607 63.9344C98.3607 64.8398 99.0946 65.5738 100 65.5738ZM101.639 70.4918C101.639 71.3972 100.905 72.1311 100 72.1311C99.0946 72.1311 98.3607 71.3972 98.3607 70.4918C98.3607 69.5864 99.0946 68.8525 100 68.8525C100.905 68.8525 101.639 69.5864 101.639 70.4918ZM100 78.6885C100.905 78.6885 101.639 77.9546 101.639 77.0492C101.639 76.1438 100.905 75.4098 100 75.4098C99.0946 75.4098 98.3607 76.1438 98.3607 77.0492C98.3607 77.9546 99.0946 78.6885 100 78.6885ZM95.082 188.525C95.082 189.43 94.348 190.164 93.4426 190.164C92.5372 190.164 91.8033 189.43 91.8033 188.525C91.8033 187.619 92.5372 186.885 93.4426 186.885C94.348 186.885 95.082 187.619 95.082 188.525ZM93.4426 170.492C94.348 170.492 95.082 169.758 95.082 168.852C95.082 167.947 94.348 167.213 93.4426 167.213C92.5372 167.213 91.8033 167.947 91.8033 168.852C91.8033 169.758 92.5372 170.492 93.4426 170.492ZM95.082 175.41C95.082 176.315 94.348 177.049 93.4426 177.049C92.5372 177.049 91.8033 176.315 91.8033 175.41C91.8033 174.504 92.5372 173.77 93.4426 173.77C94.348 173.77 95.082 174.504 95.082 175.41ZM93.4426 183.607C94.348 183.607 95.082 182.873 95.082 181.967C95.082 181.062 94.348 180.328 93.4426 180.328C92.5372 180.328 91.8033 181.062 91.8033 181.967C91.8033 182.873 92.5372 183.607 93.4426 183.607ZM95.082 162.295C95.082 163.2 94.348 163.934 93.4426 163.934C92.5372 163.934 91.8033 163.2 91.8033 162.295C91.8033 161.39 92.5372 160.656 93.4426 160.656C94.348 160.656 95.082 161.39 95.082 162.295ZM93.4426 144.262C94.348 144.262 95.082 143.528 95.082 142.623C95.082 141.718 94.348 140.984 93.4426 140.984C92.5372 140.984 91.8033 141.718 91.8033 142.623C91.8033 143.528 92.5372 144.262 93.4426 144.262ZM95.082 149.18C95.082 150.086 94.348 150.82 93.4426 150.82C92.5372 150.82 91.8033 150.086 91.8033 149.18C91.8033 148.275 92.5372 147.541 93.4426 147.541C94.348 147.541 95.082 148.275 95.082 149.18ZM93.4426 157.377C94.348 157.377 95.082 156.643 95.082 155.738C95.082 154.832 94.348 154.098 93.4426 154.098C92.5372 154.098 91.8033 154.832 91.8033 155.738C91.8033 156.643 92.5372 157.377 93.4426 157.377ZM95.082 136.066C95.082 136.971 94.348 137.705 93.4426 137.705C92.5372 137.705 91.8033 136.971 91.8033 136.066C91.8033 135.16 92.5372 134.426 93.4426 134.426C94.348 134.426 95.082 135.16 95.082 136.066ZM93.4426 118.033C94.348 118.033 95.082 117.299 95.082 116.393C95.082 115.488 94.348 114.754 93.4426 114.754C92.5372 114.754 91.8033 115.488 91.8033 116.393C91.8033 117.299 92.5372 118.033 93.4426 118.033ZM95.082 122.951C95.082 123.856 94.348 124.59 93.4426 124.59C92.5372 124.59 91.8033 123.856 91.8033 122.951C91.8033 122.045 92.5372 121.311 93.4426 121.311C94.348 121.311 95.082 122.045 95.082 122.951ZM93.4426 131.148C94.348 131.148 95.082 130.414 95.082 129.508C95.082 128.603 94.348 127.869 93.4426 127.869C92.5372 127.869 91.8033 128.603 91.8033 129.508C91.8033 130.414 92.5372 131.148 93.4426 131.148ZM95.082 109.836C95.082 110.741 94.348 111.475 93.4426 111.475C92.5372 111.475 91.8033 110.741 91.8033 109.836C91.8033 108.931 92.5372 108.197 93.4426 108.197C94.348 108.197 95.082 108.931 95.082 109.836ZM93.4426 91.8033C94.348 91.8033 95.082 91.0693 95.082 90.1639C95.082 89.2586 94.348 88.5246 93.4426 88.5246C92.5372 88.5246 91.8033 89.2586 91.8033 90.1639C91.8033 91.0693 92.5372 91.8033 93.4426 91.8033ZM95.082 96.7213C95.082 97.6267 94.348 98.3607 93.4426 98.3607C92.5372 98.3607 91.8033 97.6267 91.8033 96.7213C91.8033 95.8159 92.5372 95.082 93.4426 95.082C94.348 95.082 95.082 95.8159 95.082 96.7213ZM93.4426 104.918C94.348 104.918 95.082 104.184 95.082 103.279C95.082 102.373 94.348 101.639 93.4426 101.639C92.5372 101.639 91.8033 102.373 91.8033 103.279C91.8033 104.184 92.5372 104.918 93.4426 104.918ZM95.082 83.6066C95.082 84.5119 94.348 85.2459 93.4426 85.2459C92.5372 85.2459 91.8033 84.5119 91.8033 83.6066C91.8033 82.7012 92.5372 81.9672 93.4426 81.9672C94.348 81.9672 95.082 82.7012 95.082 83.6066ZM93.4426 65.5738C94.348 65.5738 95.082 64.8398 95.082 63.9344C95.082 63.029 94.348 62.2951 93.4426 62.2951C92.5372 62.2951 91.8033 63.029 91.8033 63.9344C91.8033 64.8398 92.5372 65.5738 93.4426 65.5738ZM95.082 70.4918C95.082 71.3972 94.348 72.1311 93.4426 72.1311C92.5372 72.1311 91.8033 71.3972 91.8033 70.4918C91.8033 69.5864 92.5372 68.8525 93.4426 68.8525C94.348 68.8525 95.082 69.5864 95.082 70.4918ZM93.4426 78.6885C94.348 78.6885 95.082 77.9546 95.082 77.0492C95.082 76.1438 94.348 75.4098 93.4426 75.4098C92.5372 75.4098 91.8033 76.1438 91.8033 77.0492C91.8033 77.9546 92.5372 78.6885 93.4426 78.6885ZM22.9508 47.541C22.9508 46.6356 23.6848 45.9016 24.5902 45.9016H60.6557C61.5611 45.9016 62.2951 46.6356 62.2951 47.541C62.2951 48.4464 61.5611 49.1803 60.6557 49.1803H24.5902C23.6848 49.1803 22.9508 48.4464 22.9508 47.541ZM49.1803 65.5738C45.5588 65.5738 42.623 68.5096 42.623 72.1311C42.623 75.7527 45.5588 78.6885 49.1803 78.6885H65.5738C69.1953 78.6885 72.1311 75.7527 72.1311 72.1311C72.1311 68.5096 69.1953 65.5738 65.5738 65.5738H49.1803ZM68.8525 39.3443H85.2459V55.7377H68.8525V39.3443ZM39.3443 19.6721H36.0656V16.3934H32.7869V19.6721H29.5082V22.9508H26.2295V26.2295H29.5082V29.5082H26.2295V32.7869H29.5082V36.0656H32.7869V39.3443H36.0656V36.0656H39.3443V39.3443H42.6229V36.0656H45.9016V32.7869H49.1803V29.5082H45.9016V26.2295H49.1803V22.9508H45.9016V19.6721H42.6229V16.3934H39.3443V19.6721ZM65.5738 3.27869H78.6885V26.2295H65.5738V3.27869ZM52.459 88.5246H36.0656V91.8033H29.5082V95.082H36.0656V98.3607H29.5082V101.639H36.0656V104.918H52.459V101.639H59.0164V98.3607H52.459V95.082H59.0164V91.8033H52.459V88.5246ZM16.3934 127.869H19.6721V121.311H22.9508V127.869H26.2295V121.311H29.5082V127.869H32.7869V121.311H36.0656V127.869H39.3443V121.311H42.6229V127.869H45.9016V121.311H49.1803V127.869H52.459V131.148H59.0164V134.426H52.459V137.705H59.0164V140.984H52.459V144.262H59.0164V147.541H52.459V150.82H59.0164V154.098H52.459V157.377H59.0164V160.656H52.459V163.934L49.1803 163.934V170.492H45.9016V163.934H42.6229V170.492H39.3443V163.934H36.0656V170.492H32.7869V163.934H29.5082V170.492H26.2295V163.934H22.9508V170.492H19.6721V163.934L16.3934 163.934V160.656H9.83607V157.377H16.3934V154.098H9.83607V150.82H16.3934V147.541H9.83607V144.262H16.3934V140.984H9.83607V137.705H16.3934V134.426H9.83607V131.148H16.3934V127.869ZM81.9672 88.5246H72.1311V91.8033H68.8525V95.082H72.1311V98.3607H68.8525V101.639H72.1311V104.918H68.8525V108.197H72.1311V111.475H68.8525V114.754H72.1311V118.033H68.8525V121.311H72.1311V124.59H68.8525V127.869H72.1311V131.148H68.8525V134.426H72.1311V137.705H68.8525V140.984H72.1311V144.262H68.8525V147.541H72.1311V150.82H68.8525V154.098H72.1311V157.377H68.8525V160.656H72.1311V163.934H68.8525V167.213H72.1311V170.492H81.9672V167.213H85.2459V163.934H81.9672V160.656H85.2459V157.377H81.9672V154.098H85.2459V150.82H81.9672V147.541H85.2459V144.262H81.9672V140.984H85.2459V137.705H81.9672V134.426H85.2459V131.148H81.9672V127.869H85.2459V124.59H81.9672V121.311H85.2459V118.033H81.9672V114.754H85.2459V111.475H81.9672V108.197H85.2459V104.918H81.9672V101.639H85.2459V98.3607H81.9672V95.082H85.2459V91.8033H81.9672V88.5246ZM22.9508 72.1311V78.6885H9.83607V72.1311H22.9508ZM22.9508 104.918V98.3607H9.83607V104.918H22.9508ZM22.9508 183.607H36.0656V190.164H22.9508V183.607ZM22.9508 91.8033V85.2459H9.83607V91.8033H22.9508ZM81.9672 47.541C81.9672 50.2571 79.7653 52.459 77.0492 52.459C74.333 52.459 72.1311 50.2571 72.1311 47.541C72.1311 44.8248 74.333 42.623 77.0492 42.623C79.7653 42.623 81.9672 44.8248 81.9672 47.541ZM32.7869 134.426H22.9508V144.262H32.7869V134.426ZM39.3443 134.426H45.9016V137.705H39.3443V134.426ZM45.9016 140.984H39.3443V144.262H45.9016V140.984ZM22.9508 147.541H45.9016V150.82H22.9508V147.541ZM45.9016 154.098H22.9508V157.377H45.9016V154.098Z" fill="#46454C"/>
</svg>
