<svg width="90" height="90" viewBox="0 0 90 90" fill="none" xmlns="http://www.w3.org/2000/svg">
<path fill-rule="evenodd" clip-rule="evenodd" d="M10 10H80V80H10V10ZM64 14H76V26H69.7324C69.3866 25.4022 68.7403 25 68 25C66.8954 25 66 25.8954 66 27C66 28.1046 66.8954 29 68 29C68.7403 29 69.3866 28.5978 69.7324 28H76V32H69.7324C69.3866 31.4022 68.7403 31 68 31C66.8954 31 66 31.8954 66 33C66 34.1046 66.8954 35 68 35C68.7403 35 69.3866 34.5978 69.7324 34H76V38H69.7324C69.3866 37.4022 68.7403 37 68 37C66.8954 37 66 37.8954 66 39C66 40.1046 66.8954 41 68 41C68.7403 41 69.3866 40.5978 69.7324 40H76V44H69.7324C69.3866 43.4022 68.7403 43 68 43C66.8954 43 66 43.8954 66 45C66 46.1046 66.8954 47 68 47C68.7403 47 69.3866 46.5978 69.7324 46H76V50H69.7324C69.3866 49.4022 68.7403 49 68 49C66.8954 49 66 49.8954 66 51C66 52.1046 66.8954 53 68 53C68.7403 53 69.3866 52.5978 69.7324 52H76V56H69.7324C69.3866 55.4022 68.7403 55 68 55C66.8954 55 66 55.8954 66 57C66 58.1046 66.8954 59 68 59C68.7403 59 69.3866 58.5978 69.7324 58H76V62H69.7324C69.3866 61.4022 68.7403 61 68 61C66.8954 61 66 61.8954 66 63C66 64.1046 66.8954 65 68 65C68.7403 65 69.3866 64.5978 69.7324 64H76V76H64V69.7324C64.5978 69.3866 65 68.7403 65 68C65 66.8954 64.1046 66 63 66C61.8954 66 61 66.8954 61 68C61 68.7403 61.4022 69.3866 62 69.7324V76H58V69.7324C58.5978 69.3866 59 68.7403 59 68C59 66.8954 58.1046 66 57 66C55.8954 66 55 66.8954 55 68C55 68.7403 55.4022 69.3866 56 69.7324V76H52V69.7324C52.5978 69.3866 53 68.7403 53 68C53 66.8954 52.1046 66 51 66C49.8954 66 49 66.8954 49 68C49 68.7403 49.4022 69.3866 50 69.7324V76H46V69.7324C46.5978 69.3866 47 68.7403 47 68C47 66.8954 46.1046 66 45 66C43.8954 66 43 66.8954 43 68C43 68.7403 43.4022 69.3866 44 69.7324V76H40V69.7324C40.5978 69.3866 41 68.7403 41 68C41 66.8954 40.1046 66 39 66C37.8954 66 37 66.8954 37 68C37 68.7403 37.4022 69.3866 38 69.7324V76H34V69.7324C34.5978 69.3866 35 68.7403 35 68C35 66.8954 34.1046 66 33 66C31.8954 66 31 66.8954 31 68C31 68.7403 31.4022 69.3866 32 69.7324V76H28V69.7324C28.5978 69.3866 29 68.7403 29 68C29 66.8954 28.1046 66 27 66C25.8954 66 25 66.8954 25 68C25 68.7403 25.4022 69.3866 26 69.7324V76H14V64H20.2676C20.6134 64.5978 21.2597 65 22 65C23.1046 65 24 64.1046 24 63C24 61.8954 23.1046 61 22 61C21.2597 61 20.6134 61.4022 20.2676 62H14V58H20.2676C20.6134 58.5978 21.2597 59 22 59C23.1046 59 24 58.1046 24 57C24 55.8954 23.1046 55 22 55C21.2597 55 20.6134 55.4022 20.2676 56H14V52H20.2676C20.6134 52.5978 21.2597 53 22 53C23.1046 53 24 52.1046 24 51C24 49.8954 23.1046 49 22 49C21.2597 49 20.6134 49.4022 20.2676 50H14V46H20.2676C20.6134 46.5978 21.2597 47 22 47C23.1046 47 24 46.1046 24 45C24 43.8954 23.1046 43 22 43C21.2597 43 20.6134 43.4022 20.2676 44H14V40H20.2676C20.6134 40.5978 21.2597 41 22 41C23.1046 41 24 40.1046 24 39C24 37.8954 23.1046 37 22 37C21.2597 37 20.6134 37.4022 20.2676 38H14V34H20.2676C20.6134 34.5978 21.2597 35 22 35C23.1046 35 24 34.1046 24 33C24 31.8954 23.1046 31 22 31C21.2597 31 20.6134 31.4022 20.2676 32H14V28H20.2676C20.6134 28.5978 21.2597 29 22 29C23.1046 29 24 28.1046 24 27C24 25.8954 23.1046 25 22 25C21.2597 25 20.6134 25.4022 20.2676 26H14V14H26V20.2676C25.4022 20.6134 25 21.2597 25 22C25 23.1046 25.8954 24 27 24C28.1046 24 29 23.1046 29 22C29 21.2597 28.5978 20.6134 28 20.2676V14H32V20.2676C31.4022 20.6134 31 21.2597 31 22C31 23.1046 31.8954 24 33 24C34.1046 24 35 23.1046 35 22C35 21.2597 34.5978 20.6134 34 20.2676V14H38V20.2676C37.4022 20.6134 37 21.2597 37 22C37 23.1046 37.8954 24 39 24C40.1046 24 41 23.1046 41 22C41 21.2597 40.5978 20.6134 40 20.2676V14H44V20.2676C43.4022 20.6134 43 21.2597 43 22C43 23.1046 43.8954 24 45 24C46.1046 24 47 23.1046 47 22C47 21.2597 46.5978 20.6134 46 20.2676V14H50V20.2676C49.4022 20.6134 49 21.2597 49 22C49 23.1046 49.8954 24 51 24C52.1046 24 53 23.1046 53 22C53 21.2597 52.5978 20.6134 52 20.2676V14H56V20.2676C55.4022 20.6134 55 21.2597 55 22C55 23.1046 55.8954 24 57 24C58.1046 24 59 23.1046 59 22C59 21.2597 58.5978 20.6134 58 20.2676V14H62V20.2676C61.4022 20.6134 61 21.2597 61 22C61 23.1046 61.8954 24 63 24C64.1046 24 65 23.1046 65 22C65 21.2597 64.5978 20.6134 64 20.2676V14ZM62 37.7143L52.2857 28L28 28V62H62V37.7143Z" fill="#9FA0B3"/>
</svg>
