<svg width="102" height="183" viewBox="0 0 102 183" fill="none" xmlns="http://www.w3.org/2000/svg">
<path fill-rule="evenodd" clip-rule="evenodd" d="M6 0H15V61.0104C18.5474 62.6956 21 66.3114 21 70.5C21 74.6886 18.5474 78.3043 15 79.9895V183H6V79.9895C2.45258 78.3043 0 74.6886 0 70.5C0 66.3114 2.45258 62.6956 6 61.0104V0ZM87 10.0105C83.4526 11.6957 81 15.3114 81 19.5C81 23.6886 83.4526 27.3043 87 28.9895V183H96V28.9896C99.5474 27.3044 102 23.6886 102 19.5C102 15.3114 99.5474 11.6956 96 10.0104V0H87V10.0105ZM54 64.5C54 60.3114 56.4526 56.6956 60 55.0104V0H69V55.0104C72.5474 56.6956 75 60.3114 75 64.5C75 68.6886 72.5474 72.3043 69 73.9895V183H60V73.9895C56.4526 72.3043 54 68.6886 54 64.5ZM33 145.01C29.4526 146.696 27 150.311 27 154.5C27 158.689 29.4526 162.304 33 163.99V183H42V163.99C45.5474 162.304 48 158.689 48 154.5C48 150.311 45.5474 146.696 42 145.01V0H33V145.01ZM10.5 75C12.9853 75 15 72.9853 15 70.5C15 68.0147 12.9853 66 10.5 66C8.01472 66 6 68.0147 6 70.5C6 72.9853 8.01472 75 10.5 75ZM42 154.5C42 156.985 39.9853 159 37.5 159C35.0147 159 33 156.985 33 154.5C33 152.015 35.0147 150 37.5 150C39.9853 150 42 152.015 42 154.5ZM64.5 69C66.9853 69 69 66.9853 69 64.5C69 62.0147 66.9853 60 64.5 60C62.0147 60 60 62.0147 60 64.5C60 66.9853 62.0147 69 64.5 69ZM96 19.5C96 21.9853 93.9853 24 91.5 24C89.0147 24 87 21.9853 87 19.5C87 17.0147 89.0147 15 91.5 15C93.9853 15 96 17.0147 96 19.5Z" fill="#46454C"/>
</svg>
