<svg width="35" height="35" viewBox="0 0 35 35" fill="none" xmlns="http://www.w3.org/2000/svg">
<path fill-rule="evenodd" clip-rule="evenodd" d="M8.92913 23.1677C8.64227 21.2983 8.5 19.3957 8.5 17.5C8.5 15.6043 8.64227 13.7017 8.92913 11.8323C7.00866 11.0437 5.20099 9.97541 3.58615 8.62742C1.94894 11.1895 1 14.2339 1 17.5C1 20.7661 1.94894 23.8105 3.58615 26.3726C5.20099 25.0246 7.00866 23.9563 8.92913 23.1677ZM9.52461 26.1768C8.05256 26.8377 6.66881 27.6939 5.42557 28.7455C7.24193 30.6948 9.52473 32.2039 12.0962 33.0948C10.9745 30.9507 10.1191 28.6129 9.52461 26.1768ZM12.368 25.1686C15.7045 24.2771 19.2955 24.2771 22.632 25.1686C21.8754 28.4047 20.6285 31.4159 18.9085 33.9407C18.4442 33.98 17.9744 34 17.5 34C17.0256 34 16.5558 33.98 16.0915 33.9407C14.3715 31.4159 13.1246 28.4047 12.368 25.1686ZM23.179 22.2107C19.4762 21.2631 15.5238 21.2631 11.821 22.2107C11.6076 20.6632 11.5 19.0844 11.5 17.5C11.5 15.9156 11.6076 14.3368 11.821 12.7893C15.5238 13.7369 19.4762 13.7369 23.179 12.7893C23.3924 14.3368 23.5 15.9156 23.5 17.5C23.5 19.0844 23.3924 20.6632 23.179 22.2107ZM25.4754 26.1768C24.8809 28.6129 24.0255 30.9507 22.9038 33.0948C25.4753 32.2039 27.7581 30.6948 29.5744 28.7455C28.3312 27.6939 26.9474 26.8377 25.4754 26.1768ZM31.4139 26.3726C29.799 25.0246 27.9913 23.9563 26.0709 23.1677C26.3577 21.2983 26.5 19.3957 26.5 17.5C26.5 15.6043 26.3577 13.7017 26.0709 11.8323C27.9913 11.0437 29.799 9.97541 31.4139 8.62742C33.0511 11.1895 34 14.2339 34 17.5C34 20.7661 33.0511 23.8105 31.4139 26.3726ZM16.0915 1.05927C14.3715 3.58411 13.1246 6.5953 12.368 9.8314C15.7045 10.7229 19.2955 10.7229 22.632 9.8314C21.8754 6.5953 20.6285 3.58411 18.9085 1.05927C18.4442 1.02002 17.9744 1 17.5 1C17.0256 1 16.5558 1.02002 16.0915 1.05927ZM25.4754 8.82318C26.9474 8.16232 28.3312 7.3061 29.5744 6.25455C27.7581 4.30515 25.4753 2.79613 22.9038 1.9052C24.0255 4.04925 24.8809 6.38713 25.4754 8.82318ZM5.42557 6.25455C6.66881 7.3061 8.05256 8.16232 9.52461 8.82318C10.1191 6.38713 10.9745 4.04925 12.0962 1.9052C9.52473 2.79612 7.24193 4.30515 5.42557 6.25455Z" fill="#71A4EA"/>
<path d="M8.92913 23.1677L9.11905 23.6302L9.48302 23.4807L9.42334 23.0918L8.92913 23.1677ZM8.92913 11.8323L9.42334 11.9082L9.48302 11.5193L9.11905 11.3698L8.92913 11.8323ZM3.58615 8.62742L3.90656 8.24358L3.4706 7.87966L3.16482 8.35819L3.58615 8.62742ZM3.58615 26.3726L3.16482 26.6418L3.4706 27.1203L3.90656 26.7564L3.58615 26.3726ZM5.42557 28.7455L5.10267 28.3637L4.70213 28.7025L5.05975 29.0863L5.42557 28.7455ZM9.52461 26.1768L10.0103 26.0583L9.86791 25.4746L9.31982 25.7207L9.52461 26.1768ZM12.0962 33.0948L11.9326 33.5672L13.1236 33.9799L12.5393 32.863L12.0962 33.0948ZM12.368 25.1686L12.2389 24.6855L11.7708 24.8106L11.8811 25.2824L12.368 25.1686ZM22.632 25.1686L23.1189 25.2824L23.2292 24.8106L22.7611 24.6855L22.632 25.1686ZM18.9085 33.9407L18.9506 34.439L19.1877 34.4189L19.3217 34.2222L18.9085 33.9407ZM16.0915 33.9407L15.6783 34.2222L15.8123 34.4189L16.0494 34.439L16.0915 33.9407ZM23.179 22.2107L23.055 22.695L23.5977 22.8339L23.6743 22.279L23.179 22.2107ZM11.821 22.2107L11.3257 22.279L11.4023 22.8339L11.945 22.695L11.821 22.2107ZM11.821 12.7893L11.945 12.305L11.4023 12.1661L11.3257 12.721L11.821 12.7893ZM23.179 12.7893L23.6743 12.721L23.5977 12.1661L23.055 12.305L23.179 12.7893ZM25.4754 26.1768L25.6802 25.7207L25.1321 25.4746L24.9896 26.0583L25.4754 26.1768ZM22.9038 33.0948L22.4607 32.863L21.8764 33.9799L23.0674 33.5672L22.9038 33.0948ZM29.5744 28.7455L29.9402 29.0863L30.2979 28.7025L29.8973 28.3637L29.5744 28.7455ZM31.4139 26.3726L31.0934 26.7564L31.5294 27.1203L31.8352 26.6418L31.4139 26.3726ZM26.0709 23.1677L25.5767 23.0918L25.517 23.4807L25.8809 23.6302L26.0709 23.1677ZM26.0709 11.8323L25.8809 11.3698L25.517 11.5193L25.5767 11.9082L26.0709 11.8323ZM31.4139 8.62742L31.8352 8.35819L31.5294 7.87966L31.0934 8.24358L31.4139 8.62742ZM12.368 9.8314L11.8811 9.71757L11.7708 10.1894L12.2389 10.3145L12.368 9.8314ZM16.0915 1.05927L16.0494 0.561048L15.8123 0.581093L15.6783 0.777764L16.0915 1.05927ZM22.632 9.8314L22.7611 10.3145L23.2292 10.1894L23.1189 9.71757L22.632 9.8314ZM18.9085 1.05927L19.3217 0.777764L19.1877 0.581093L18.9506 0.561048L18.9085 1.05927ZM29.5744 6.25455L29.8973 6.6363L30.2979 6.29752L29.9402 5.9137L29.5744 6.25455ZM25.4754 8.82318L24.9896 8.94173L25.1321 9.52538L25.6802 9.27932L25.4754 8.82318ZM22.9038 1.9052L23.0674 1.43275L21.8764 1.0201L22.4607 2.13699L22.9038 1.9052ZM9.52461 8.82318L9.31982 9.27932L9.86791 9.52538L10.0103 8.94173L9.52461 8.82318ZM5.42557 6.25455L5.05975 5.9137L4.70213 6.29752L5.10267 6.6363L5.42557 6.25455ZM12.0962 1.9052L12.5393 2.13699L13.1236 1.0201L11.9326 1.43275L12.0962 1.9052ZM8 17.5C8 19.4206 8.14412 21.3485 8.43491 23.2435L9.42334 23.0918C9.14042 21.2481 9 19.3709 9 17.5H8ZM8.43491 11.7565C8.14412 13.6515 8 15.5794 8 17.5H9C9 15.6291 9.14042 13.7519 9.42334 11.9082L8.43491 11.7565ZM3.26573 9.01126C4.92182 10.3937 6.77397 11.4879 8.7392 12.2948L9.11905 11.3698C7.24334 10.5996 5.48016 9.55714 3.90656 8.24358L3.26573 9.01126ZM1.5 17.5C1.5 14.3322 2.42011 11.3808 4.00747 8.89665L3.16482 8.35819C1.47777 10.9983 0.5 14.1357 0.5 17.5H1.5ZM4.00747 26.1034C2.42011 23.6192 1.5 20.6678 1.5 17.5H0.5C0.5 20.8643 1.47777 24.0017 3.16482 26.6418L4.00747 26.1034ZM8.7392 22.7052C6.77397 23.5121 4.92182 24.6063 3.26573 25.9887L3.90656 26.7564C5.48016 25.4429 7.24334 24.4004 9.11905 23.6302L8.7392 22.7052ZM5.74846 29.1272C6.95414 28.1074 8.29771 27.2757 9.72939 26.633L9.31982 25.7207C7.8074 26.3997 6.38347 27.2804 5.10267 28.3637L5.74846 29.1272ZM12.2599 32.6224C9.767 31.7587 7.55319 30.2954 5.79138 28.4046L5.05975 29.0863C6.93066 31.0942 9.28246 32.6491 11.9326 33.5672L12.2599 32.6224ZM9.03886 26.2954C9.64198 28.7667 10.5108 31.1431 11.6532 33.3266L12.5393 32.863C11.4381 30.7584 10.5963 28.4591 10.0103 26.0583L9.03886 26.2954ZM12.4971 25.6517C15.749 24.7828 19.251 24.7828 22.5029 25.6517L22.7611 24.6855C19.34 23.7715 15.66 23.7715 12.2389 24.6855L12.4971 25.6517ZM19.3217 34.2222C21.0818 31.6386 22.3506 28.5684 23.1189 25.2824L22.1451 25.0548C21.4002 28.241 20.1752 31.1932 18.4952 33.6592L19.3217 34.2222ZM17.5 34.5C17.9885 34.5 18.4723 34.4794 18.9506 34.439L18.8663 33.4425C18.4161 33.4806 17.9604 33.5 17.5 33.5V34.5ZM16.0494 34.439C16.5277 34.4794 17.0115 34.5 17.5 34.5V33.5C17.0396 33.5 16.5839 33.4806 16.1337 33.4425L16.0494 34.439ZM11.8811 25.2824C12.6494 28.5684 13.9182 31.6386 15.6783 34.2222L16.5048 33.6592C14.8248 31.1932 13.5998 28.241 12.8549 25.0548L11.8811 25.2824ZM23.3029 21.7263C19.5188 20.7579 15.4812 20.7579 11.6971 21.7263L11.945 22.695C15.5665 21.7683 19.4335 21.7683 23.055 22.695L23.3029 21.7263ZM11 17.5C11 19.1069 11.1091 20.7085 11.3257 22.279L12.3163 22.1423C12.1061 20.6178 12 19.0618 12 17.5H11ZM11.3257 12.721C11.1091 14.2915 11 15.8931 11 17.5H12C12 15.9382 12.1061 14.3822 12.3163 12.8577L11.3257 12.721ZM23.055 12.305C19.4335 13.2317 15.5665 13.2317 11.945 12.305L11.6971 13.2737C15.4812 14.2421 19.5188 14.2421 23.3029 13.2737L23.055 12.305ZM24 17.5C24 15.8931 23.8909 14.2915 23.6743 12.721L22.6837 12.8577C22.8939 14.3822 23 15.9382 23 17.5H24ZM23.6743 22.279C23.8909 20.7085 24 19.1069 24 17.5H23C23 19.0618 22.8939 20.6178 22.6837 22.1423L23.6743 22.279ZM24.9896 26.0583C24.4037 28.4591 23.5619 30.7584 22.4607 32.863L23.3468 33.3266C24.4892 31.1431 25.358 28.7667 25.9611 26.2954L24.9896 26.0583ZM23.0674 33.5672C25.7175 32.6491 28.0693 31.0942 29.9402 29.0863L29.2086 28.4046C27.4468 30.2954 25.233 31.7587 22.7401 32.6224L23.0674 33.5672ZM25.2706 26.633C26.7023 27.2757 28.0459 28.1074 29.2515 29.1272L29.8973 28.3637C28.6165 27.2804 27.1926 26.3997 25.6802 25.7207L25.2706 26.633ZM31.7343 25.9887C30.0782 24.6063 28.226 23.5121 26.2608 22.7052L25.8809 23.6302C27.7567 24.4004 29.5198 25.4429 31.0934 26.7564L31.7343 25.9887ZM26 17.5C26 19.3709 25.8596 21.2481 25.5767 23.0918L26.5651 23.2435C26.8559 21.3485 27 19.4206 27 17.5H26ZM25.5767 11.9082C25.8596 13.7519 26 15.6291 26 17.5H27C27 15.5794 26.8559 13.6515 26.5651 11.7565L25.5767 11.9082ZM31.0934 8.24358C29.5198 9.55714 27.7567 10.5996 25.8809 11.3698L26.2608 12.2948C28.226 11.4879 30.0782 10.3937 31.7343 9.01126L31.0934 8.24358ZM34.5 17.5C34.5 14.1357 33.5222 10.9983 31.8352 8.35819L30.9925 8.89665C32.5799 11.3808 33.5 14.3322 33.5 17.5H34.5ZM31.8352 26.6418C33.5222 24.0017 34.5 20.8643 34.5 17.5H33.5C33.5 20.6678 32.5799 23.6192 30.9925 26.1034L31.8352 26.6418ZM12.8549 9.94524C13.5998 6.759 14.8248 3.80683 16.5048 1.34078L15.6783 0.777764C13.9182 3.36139 12.6494 6.43159 11.8811 9.71757L12.8549 9.94524ZM22.5029 9.34835C19.251 10.2172 15.749 10.2172 12.4971 9.34835L12.2389 10.3145C15.66 11.2285 19.34 11.2285 22.7611 10.3145L22.5029 9.34835ZM18.4952 1.34078C20.1752 3.80683 21.4002 6.759 22.1451 9.94524L23.1189 9.71757C22.3506 6.43159 21.0818 3.36139 19.3217 0.777764L18.4952 1.34078ZM17.5 1.5C17.9604 1.5 18.4161 1.51943 18.8663 1.55749L18.9506 0.561048C18.4723 0.520618 17.9885 0.5 17.5 0.5V1.5ZM16.1337 1.55749C16.5839 1.51943 17.0396 1.5 17.5 1.5V0.5C17.0115 0.5 16.5277 0.520618 16.0494 0.561048L16.1337 1.55749ZM29.2515 5.87279C28.0459 6.89258 26.7023 7.7243 25.2706 8.36704L25.6802 9.27932C27.1926 8.60033 28.6165 7.71963 29.8973 6.6363L29.2515 5.87279ZM22.7401 2.37765C25.233 3.24135 27.4468 4.70455 29.2086 6.5954L29.9402 5.9137C28.0693 3.90575 25.7175 2.3509 23.0674 1.43275L22.7401 2.37765ZM25.9611 8.70464C25.358 6.23333 24.4892 3.85688 23.3468 1.67341L22.4607 2.13699C23.5619 4.24163 24.4037 6.54094 24.9896 8.94173L25.9611 8.70464ZM9.72939 8.36704C8.29771 7.7243 6.95414 6.89258 5.74846 5.87279L5.10267 6.6363C6.38347 7.71963 7.8074 8.60033 9.31982 9.27932L9.72939 8.36704ZM11.6532 1.67341C10.5108 3.85688 9.64198 6.23333 9.03886 8.70464L10.0103 8.94173C10.5963 6.54094 11.4381 4.24163 12.5393 2.13699L11.6532 1.67341ZM5.79138 6.5954C7.55319 4.70455 9.767 3.24135 12.2599 2.37765L11.9326 1.43275C9.28246 2.3509 6.93066 3.90575 5.05975 5.9137L5.79138 6.5954Z" fill="#46454C"/>
</svg>
