<svg width="36" height="36" viewBox="0 0 36 36" fill="none" xmlns="http://www.w3.org/2000/svg">
<path d="M29 7.5H29.5V7V3C29.5 1.61929 28.3807 0.5 27 0.5H3C1.61929 0.5 0.5 1.61929 0.5 3V7V7.5H1H29Z" fill="#71A4EA" stroke="#46454C"/>
<path d="M29 10.5H29.5V11V25C29.5 26.3807 28.3807 27.5 27 27.5H3C1.61929 27.5 0.5 26.3807 0.5 25V11V10.5H1H29Z" fill="#FBFBFB" stroke="#46454C"/>
<rect x="4" y="14" width="12" height="2" fill="#9FA0B3"/>
<rect x="4" y="18" width="12" height="2" fill="#9FA0B3"/>
<rect x="4" y="22" width="12" height="2" fill="#9FA0B3"/>
<rect x="11.5" y="13.5" width="3" height="3" fill="#71A4EA" stroke="#46454C"/>
<rect x="10.5" y="21.5" width="3" height="3" fill="#71A4EA" stroke="#46454C"/>
<rect x="5.5" y="17.5" width="3" height="3" fill="#71A4EA" stroke="#46454C"/>
<circle cx="26.5" cy="26.5" r="2" fill="#9FA0B3" stroke="#46454C"/>
<circle cx="4" cy="4" r="1.5" fill="#FBFBFB" stroke="#46454C"/>
<circle cx="9" cy="4" r="1.5" fill="#9FA0B3" stroke="#46454C"/>
<rect x="18" y="14" width="2" height="4" fill="#A6905B"/>
<rect x="21" y="13" width="2" height="5" fill="#A6905B"/>
<rect x="24" y="14" width="2" height="4" fill="#A6905B"/>
<mask id="path-15-outside-1" maskUnits="userSpaceOnUse" x="17" y="17" width="19" height="19" fill="black">
<rect fill="white" x="17" y="17" width="19" height="19"/>
<path fillRule="evenodd" clipRule="evenodd" d="M20.9925 20.0254L22.7912 21.1612C23.543 20.638 24.4105 20.2695 25.3476 20.1018L25.8162 18.0271C26.0418 18.0091 26.2698 18 26.5 18C26.7302 18 26.9582 18.0091 27.1838 18.0271L27.6524 20.1018C28.5895 20.2695 29.457 20.638 30.2088 21.1612L32.0075 20.0254C32.3551 20.3214 32.6786 20.6449 32.9746 20.9925L31.8388 22.7912C32.362 23.543 32.7305 24.4105 32.8982 25.3476L34.9729 25.8162C34.9909 26.0418 35 26.2698 35 26.5C35 26.7302 34.9909 26.9582 34.9729 27.1838L32.8982 27.6524C32.7305 28.5895 32.362 29.457 31.8388 30.2088L32.9746 32.0075C32.6786 32.3551 32.3551 32.6786 32.0075 32.9746L30.2088 31.8388C29.457 32.362 28.5895 32.7305 27.6524 32.8982L27.1838 34.9729C26.9582 34.9909 26.7302 35 26.5 35C26.2698 35 26.0418 34.9909 25.8162 34.9729L25.3476 32.8982C24.4105 32.7305 23.543 32.362 22.7912 31.8388L20.9925 32.9746C20.6449 32.6786 20.3214 32.3551 20.0254 32.0075L21.1612 30.2088C20.638 29.457 20.2695 28.5895 20.1018 27.6524L18.0271 27.1838C18.0091 26.9582 18 26.7302 18 26.5C18 26.2698 18.0091 26.0418 18.0271 25.8162L20.1018 25.3476C20.2695 24.4105 20.638 23.543 21.1612 22.7912L20.0254 20.9925C20.3214 20.6449 20.6449 20.3214 20.9925 20.0254ZM26.5 31C28.9853 31 31 28.9853 31 26.5C31 24.0147 28.9853 22 26.5 22C24.0147 22 22 24.0147 22 26.5C22 28.9853 24.0147 31 26.5 31Z"/>
</mask>
<path fillRule="evenodd" clipRule="evenodd" d="M20.9925 20.0254L22.7912 21.1612C23.543 20.638 24.4105 20.2695 25.3476 20.1018L25.8162 18.0271C26.0418 18.0091 26.2698 18 26.5 18C26.7302 18 26.9582 18.0091 27.1838 18.0271L27.6524 20.1018C28.5895 20.2695 29.457 20.638 30.2088 21.1612L32.0075 20.0254C32.3551 20.3214 32.6786 20.6449 32.9746 20.9925L31.8388 22.7912C32.362 23.543 32.7305 24.4105 32.8982 25.3476L34.9729 25.8162C34.9909 26.0418 35 26.2698 35 26.5C35 26.7302 34.9909 26.9582 34.9729 27.1838L32.8982 27.6524C32.7305 28.5895 32.362 29.457 31.8388 30.2088L32.9746 32.0075C32.6786 32.3551 32.3551 32.6786 32.0075 32.9746L30.2088 31.8388C29.457 32.362 28.5895 32.7305 27.6524 32.8982L27.1838 34.9729C26.9582 34.9909 26.7302 35 26.5 35C26.2698 35 26.0418 34.9909 25.8162 34.9729L25.3476 32.8982C24.4105 32.7305 23.543 32.362 22.7912 31.8388L20.9925 32.9746C20.6449 32.6786 20.3214 32.3551 20.0254 32.0075L21.1612 30.2088C20.638 29.457 20.2695 28.5895 20.1018 27.6524L18.0271 27.1838C18.0091 26.9582 18 26.7302 18 26.5C18 26.2698 18.0091 26.0418 18.0271 25.8162L20.1018 25.3476C20.2695 24.4105 20.638 23.543 21.1612 22.7912L20.0254 20.9925C20.3214 20.6449 20.6449 20.3214 20.9925 20.0254ZM26.5 31C28.9853 31 31 28.9853 31 26.5C31 24.0147 28.9853 22 26.5 22C24.0147 22 22 24.0147 22 26.5C22 28.9853 24.0147 31 26.5 31Z" fill="#9FA0B3"/>
<path d="M22.7912 21.1612L22.2573 22.0068L22.8181 22.3609L23.3625 21.982L22.7912 21.1612ZM20.9925 20.0254L21.5264 19.1799L20.9044 18.7871L20.3442 19.264L20.9925 20.0254ZM25.3476 20.1018L25.5237 21.0862L26.1768 20.9694L26.323 20.3222L25.3476 20.1018ZM25.8162 18.0271L25.7369 17.0303L25.003 17.0887L24.8408 17.8068L25.8162 18.0271ZM27.1838 18.0271L28.1592 17.8068L27.997 17.0887L27.2631 17.0303L27.1838 18.0271ZM27.6524 20.1018L26.677 20.3222L26.8232 20.9694L27.4763 21.0862L27.6524 20.1018ZM30.2088 21.1612L29.6375 21.982L30.1819 22.3609L30.7427 22.0068L30.2088 21.1612ZM32.0075 20.0254L32.6558 19.264L32.0956 18.7871L31.4736 19.1799L32.0075 20.0254ZM32.9746 20.9925L33.8201 21.5264L34.2129 20.9044L33.736 20.3442L32.9746 20.9925ZM31.8388 22.7912L30.9932 22.2573L30.6391 22.8181L31.018 23.3625L31.8388 22.7912ZM32.8982 25.3476L31.9138 25.5237L32.0306 26.1768L32.6778 26.323L32.8982 25.3476ZM34.9729 25.8162L35.9697 25.7369L35.9113 25.003L35.1932 24.8408L34.9729 25.8162ZM34.9729 27.1838L35.1932 28.1592L35.9113 27.997L35.9697 27.2631L34.9729 27.1838ZM32.8982 27.6524L32.6778 26.677L32.0306 26.8232L31.9138 27.4763L32.8982 27.6524ZM31.8388 30.2088L31.018 29.6375L30.6391 30.1819L30.9932 30.7427L31.8388 30.2088ZM32.9746 32.0075L33.736 32.6558L34.2129 32.0956L33.8201 31.4736L32.9746 32.0075ZM32.0075 32.9746L31.4736 33.8201L32.0956 34.2129L32.6558 33.736L32.0075 32.9746ZM30.2088 31.8388L30.7427 30.9932L30.1819 30.6391L29.6375 31.018L30.2088 31.8388ZM27.6524 32.8982L27.4763 31.9138L26.8232 32.0306L26.677 32.6778L27.6524 32.8982ZM27.1838 34.9729L27.2631 35.9697L27.997 35.9113L28.1592 35.1932L27.1838 34.9729ZM25.8162 34.9729L24.8408 35.1932L25.003 35.9113L25.7369 35.9697L25.8162 34.9729ZM25.3476 32.8982L26.323 32.6778L26.1768 32.0306L25.5237 31.9138L25.3476 32.8982ZM22.7912 31.8388L23.3625 31.018L22.8181 30.6391L22.2573 30.9932L22.7912 31.8388ZM20.9925 32.9746L20.3442 33.736L20.9044 34.2129L21.5264 33.8201L20.9925 32.9746ZM20.0254 32.0075L19.1799 31.4736L18.7871 32.0956L19.264 32.6558L20.0254 32.0075ZM21.1612 30.2088L22.0068 30.7427L22.3609 30.1819L21.982 29.6375L21.1612 30.2088ZM20.1018 27.6524L21.0862 27.4763L20.9694 26.8232L20.3222 26.677L20.1018 27.6524ZM18.0271 27.1838L17.0303 27.2631L17.0887 27.997L17.8068 28.1592L18.0271 27.1838ZM18.0271 25.8162L17.8068 24.8408L17.0887 25.003L17.0303 25.7369L18.0271 25.8162ZM20.1018 25.3476L20.3222 26.323L20.9694 26.1768L21.0862 25.5237L20.1018 25.3476ZM21.1612 22.7912L21.982 23.3625L22.3609 22.8181L22.0068 22.2573L21.1612 22.7912ZM20.0254 20.9925L19.264 20.3442L18.7871 20.9044L19.1799 21.5264L20.0254 20.9925ZM23.3251 20.3157L21.5264 19.1799L20.4586 20.8709L22.2573 22.0068L23.3251 20.3157ZM25.1714 19.1175C24.0889 19.3112 23.0872 19.7369 22.2199 20.3405L23.3625 21.982C23.9987 21.5392 24.732 21.2279 25.5237 21.0862L25.1714 19.1175ZM24.8408 17.8068L24.3721 19.8815L26.323 20.3222L26.7916 18.2474L24.8408 17.8068ZM26.5 17C26.2433 17 25.9888 17.0102 25.7369 17.0303L25.8956 19.024C26.0948 19.0081 26.2963 19 26.5 19V17ZM27.2631 17.0303C27.0112 17.0102 26.7567 17 26.5 17V19C26.7037 19 26.9052 19.0081 27.1044 19.024L27.2631 17.0303ZM28.6279 19.8815L28.1592 17.8068L26.2084 18.2474L26.677 20.3222L28.6279 19.8815ZM30.7801 20.3405C29.9128 19.7369 28.9111 19.3112 27.8286 19.1175L27.4763 21.0862C28.268 21.2279 29.0013 21.5392 29.6375 21.982L30.7801 20.3405ZM31.4736 19.1799L29.6749 20.3157L30.7427 22.0068L32.5414 20.8709L31.4736 19.1799ZM33.736 20.3442C33.4054 19.9559 33.0441 19.5946 32.6558 19.264L31.3592 20.7868C31.6662 21.0482 31.9518 21.3338 32.2132 21.6408L33.736 20.3442ZM32.6843 23.3251L33.8201 21.5264L32.1291 20.4586L30.9932 22.2573L32.6843 23.3251ZM33.8825 25.1714C33.6888 24.0889 33.2631 23.0872 32.6595 22.2199L31.018 23.3625C31.4608 23.9987 31.7721 24.732 31.9138 25.5237L33.8825 25.1714ZM35.1932 24.8408L33.1185 24.3721L32.6778 26.323L34.7526 26.7916L35.1932 24.8408ZM36 26.5C36 26.2433 35.9898 25.9888 35.9697 25.7369L33.976 25.8956C33.9919 26.0948 34 26.2963 34 26.5H36ZM35.9697 27.2631C35.9898 27.0112 36 26.7567 36 26.5H34C34 26.7037 33.9919 26.9052 33.976 27.1044L35.9697 27.2631ZM33.1185 28.6279L35.1932 28.1592L34.7526 26.2084L32.6778 26.677L33.1185 28.6279ZM32.6595 30.78C33.2631 29.9128 33.6888 28.9111 33.8825 27.8286L31.9138 27.4763C31.7721 28.268 31.4608 29.0013 31.018 29.6375L32.6595 30.78ZM33.8201 31.4736L32.6843 29.6749L30.9932 30.7427L32.1291 32.5414L33.8201 31.4736ZM32.6558 33.736C33.0441 33.4054 33.4054 33.0441 33.736 32.6558L32.2132 31.3592C31.9518 31.6662 31.6662 31.9518 31.3592 32.2132L32.6558 33.736ZM29.6749 32.6843L31.4736 33.8201L32.5414 32.1291L30.7427 30.9932L29.6749 32.6843ZM27.8286 33.8825C28.9111 33.6888 29.9128 33.2631 30.78 32.6595L29.6375 31.018C29.0013 31.4608 28.268 31.7721 27.4763 31.9138L27.8286 33.8825ZM28.1592 35.1932L28.6279 33.1185L26.677 32.6778L26.2084 34.7526L28.1592 35.1932ZM26.5 36C26.7567 36 27.0112 35.9898 27.2631 35.9697L27.1044 33.976C26.9052 33.9919 26.7037 34 26.5 34V36ZM25.7369 35.9697C25.9888 35.9898 26.2433 36 26.5 36V34C26.2963 34 26.0948 33.9919 25.8956 33.976L25.7369 35.9697ZM24.3721 33.1185L24.8408 35.1932L26.7916 34.7526L26.323 32.6778L24.3721 33.1185ZM22.2199 32.6595C23.0872 33.2631 24.0889 33.6888 25.1714 33.8825L25.5237 31.9138C24.732 31.7721 23.9987 31.4608 23.3625 31.018L22.2199 32.6595ZM21.5264 33.8201L23.3251 32.6843L22.2573 30.9932L20.4586 32.1291L21.5264 33.8201ZM19.264 32.6558C19.5946 33.0441 19.9559 33.4054 20.3442 33.736L21.6408 32.2132C21.3338 31.9518 21.0482 31.6662 20.7868 31.3592L19.264 32.6558ZM20.3157 29.6749L19.1799 31.4736L20.8709 32.5414L22.0068 30.7427L20.3157 29.6749ZM19.1175 27.8286C19.3112 28.9111 19.7369 29.9128 20.3405 30.7801L21.982 29.6375C21.5392 29.0013 21.2279 28.268 21.0862 27.4763L19.1175 27.8286ZM17.8068 28.1592L19.8815 28.6279L20.3222 26.677L18.2474 26.2084L17.8068 28.1592ZM17 26.5C17 26.7567 17.0102 27.0112 17.0303 27.2631L19.024 27.1044C19.0081 26.9052 19 26.7037 19 26.5H17ZM17.0303 25.7369C17.0102 25.9888 17 26.2433 17 26.5H19C19 26.2963 19.0081 26.0948 19.024 25.8956L17.0303 25.7369ZM19.8815 24.3721L17.8068 24.8408L18.2474 26.7916L20.3222 26.323L19.8815 24.3721ZM20.3405 22.2199C19.7369 23.0872 19.3112 24.0889 19.1175 25.1714L21.0862 25.5237C21.2279 24.732 21.5392 23.9987 21.982 23.3625L20.3405 22.2199ZM19.1799 21.5264L20.3157 23.3251L22.0068 22.2573L20.8709 20.4586L19.1799 21.5264ZM20.3442 19.264C19.9559 19.5946 19.5946 19.9559 19.264 20.3442L20.7868 21.6408C21.0482 21.3338 21.3338 21.0482 21.6408 20.7868L20.3442 19.264ZM30 26.5C30 28.433 28.433 30 26.5 30V32C29.5376 32 32 29.5376 32 26.5H30ZM26.5 23C28.433 23 30 24.567 30 26.5H32C32 23.4624 29.5376 21 26.5 21V23ZM23 26.5C23 24.567 24.567 23 26.5 23V21C23.4624 21 21 23.4624 21 26.5H23ZM26.5 30C24.567 30 23 28.433 23 26.5H21C21 29.5376 23.4624 32 26.5 32V30Z" fill="#46454C" mask="url(#path-15-outside-1)"/>
</svg>
