<svg width="36" height="38" viewBox="0 0 36 38" fill="none" xmlns="http://www.w3.org/2000/svg">
<mask id="path-1-inside-1" fill="white">
<path fillRule="evenodd" clipRule="evenodd" d="M7 38H15.3412C15.7606 36.4075 17.2397 35.2308 19 35.2308C20.7602 35.2308 22.2393 36.4075 22.6587 38H31.2778V29.576C31.5796 29.6519 31.8961 29.6923 32.2222 29.6923C34.3087 29.6923 36 28.0392 36 26C36 23.9608 34.3087 22.3077 32.2222 22.3077C31.8961 22.3077 31.5796 22.3481 31.2778 22.424V14L22.7777 14C22.7777 16.0392 21.0864 17.6923 19 17.6923C16.9135 17.6923 15.2222 16.0392 15.2222 14L7 14V38ZM33.1667 26C33.1667 26.5098 32.7438 26.9231 32.2222 26.9231C31.7006 26.9231 31.2778 26.5098 31.2778 26C31.2778 25.4902 31.7006 25.0769 32.2222 25.0769C32.7438 25.0769 33.1667 25.4902 33.1667 26Z"/>
</mask>
<path fillRule="evenodd" clipRule="evenodd" d="M7 38H15.3412C15.7606 36.4075 17.2397 35.2308 19 35.2308C20.7602 35.2308 22.2393 36.4075 22.6587 38H31.2778V29.576C31.5796 29.6519 31.8961 29.6923 32.2222 29.6923C34.3087 29.6923 36 28.0392 36 26C36 23.9608 34.3087 22.3077 32.2222 22.3077C31.8961 22.3077 31.5796 22.3481 31.2778 22.424V14L22.7777 14C22.7777 16.0392 21.0864 17.6923 19 17.6923C16.9135 17.6923 15.2222 16.0392 15.2222 14L7 14V38ZM33.1667 26C33.1667 26.5098 32.7438 26.9231 32.2222 26.9231C31.7006 26.9231 31.2778 26.5098 31.2778 26C31.2778 25.4902 31.7006 25.0769 32.2222 25.0769C32.7438 25.0769 33.1667 25.4902 33.1667 26Z" fill="#9FA0B3"/>
<path d="M7 38H6V39H7V38ZM15.3412 38V39H16.1119L16.3082 38.2547L15.3412 38ZM22.6587 38L21.6917 38.2547L21.888 39H22.6587V38ZM31.2778 38V39H32.2778V38H31.2778ZM31.2778 29.576L31.5217 28.6062L30.2778 28.2932V29.576H31.2778ZM31.2778 22.424H30.2778V23.7068L31.5217 23.3938L31.2778 22.424ZM31.2778 14H32.2778V13L31.2778 13V14ZM22.7777 14L22.7777 13L21.7777 13V14H22.7777ZM15.2222 14H16.2222V13L15.2222 13L15.2222 14ZM7 14L7 13L6 13V14H7ZM7 39H15.3412V37H7V39ZM16.3082 38.2547C16.6112 37.1042 17.691 36.2308 19 36.2308V34.2308C16.7884 34.2308 14.9099 35.7108 14.3742 37.7453L16.3082 38.2547ZM19 36.2308C20.3089 36.2308 21.3887 37.1042 21.6917 38.2547L23.6257 37.7453C23.09 35.7108 21.2116 34.2308 19 34.2308V36.2308ZM22.6587 39H31.2778V37H22.6587V39ZM32.2778 38V29.576H30.2778V38H32.2778ZM31.0338 30.5458C31.4149 30.6416 31.8133 30.6923 32.2222 30.6923V28.6923C31.9789 28.6923 31.7444 28.6622 31.5217 28.6062L31.0338 30.5458ZM32.2222 30.6923C34.8392 30.6923 37 28.6129 37 26H35C35 27.4655 33.7781 28.6923 32.2222 28.6923V30.6923ZM37 26C37 23.3871 34.8392 21.3077 32.2222 21.3077V23.3077C33.7781 23.3077 35 24.5345 35 26H37ZM32.2222 21.3077C31.8133 21.3077 31.4149 21.3584 31.0338 21.4542L31.5217 23.3938C31.7444 23.3378 31.9789 23.3077 32.2222 23.3077V21.3077ZM32.2778 22.424V14H30.2778V22.424H32.2778ZM31.2778 13L22.7777 13L22.7777 15L31.2778 15V13ZM21.7777 14C21.7777 15.4655 20.5558 16.6923 19 16.6923V18.6923C21.6169 18.6923 23.7777 16.6129 23.7777 14H21.7777ZM19 16.6923C17.4441 16.6923 16.2222 15.4655 16.2222 14H14.2222C14.2222 16.6129 16.383 18.6923 19 18.6923V16.6923ZM15.2222 13L7 13L7 15L15.2222 15L15.2222 13ZM6 14V38H8V14H6ZM32.2222 27.9231C33.2744 27.9231 34.1667 27.0835 34.1667 26H32.1667C32.1667 25.9714 32.18 25.9484 32.1911 25.9376C32.2018 25.9271 32.2146 25.9231 32.2222 25.9231V27.9231ZM30.2778 26C30.2778 27.0835 31.1701 27.9231 32.2222 27.9231V25.9231C32.2299 25.9231 32.2427 25.9271 32.2534 25.9376C32.2645 25.9484 32.2778 25.9714 32.2778 26H30.2778ZM32.2222 24.0769C31.1701 24.0769 30.2778 24.9165 30.2778 26H32.2778C32.2778 26.0286 32.2645 26.0516 32.2534 26.0624C32.2427 26.0729 32.2299 26.0769 32.2222 26.0769V24.0769ZM34.1667 26C34.1667 24.9165 33.2744 24.0769 32.2222 24.0769V26.0769C32.2146 26.0769 32.2018 26.0729 32.1911 26.0624C32.18 26.0516 32.1667 26.0286 32.1667 26H34.1667Z" fill="#46454C" mask="url(#path-1-inside-1)"/>
<rect x="20" y="32" width="5" height="9" transform="rotate(-90 20 32)" fill="#46454C"/>
<rect x="21" y="27" width="2" height="1" transform="rotate(-90 21 27)" fill="#46454C"/>
<rect x="23" y="27" width="2" height="1" transform="rotate(-90 23 27)" fill="#46454C"/>
<rect x="25" y="27" width="2" height="1" transform="rotate(-90 25 27)" fill="#46454C"/>
<rect x="27" y="27" width="2" height="1" transform="rotate(-90 27 27)" fill="#46454C"/>
<rect x="21" y="34" width="2" height="1" transform="rotate(-90 21 34)" fill="#46454C"/>
<rect x="23" y="34" width="2" height="1" transform="rotate(-90 23 34)" fill="#46454C"/>
<rect x="25" y="34" width="2" height="1" transform="rotate(-90 25 34)" fill="#46454C"/>
<rect x="27" y="34" width="2" height="1" transform="rotate(-90 27 34)" fill="#46454C"/>
<rect x="21" y="31" width="3" height="1" transform="rotate(-90 21 31)" fill="#9FA0B3"/>
<rect x="24" y="31" width="3" height="1" transform="rotate(-90 24 31)" fill="#9FA0B3"/>
<rect x="27" y="31" width="3" height="1" transform="rotate(-90 27 31)" fill="#9FA0B3"/>
<rect x="15.5" y="27.5" width="3" height="5" fill="#71A4EA" stroke="#46454C"/>
<rect x="23.5" y="19.5" width="5" height="3" fill="#71A4EA" stroke="#46454C"/>
<rect x="17" y="13" width="1" height="8" fill="#46454C"/>
<rect x="20" y="13" width="1" height="8" fill="#46454C"/>
<mask id="path-19-outside-2" maskUnits="userSpaceOnUse" x="13" y="0" width="12" height="13" fill="black">
<rect fill="white" x="13" width="12" height="13"/>
<path fillRule="evenodd" clipRule="evenodd" d="M19 1C17.3431 1 16 2.34315 16 4V10H14V12H24V10H22V4C22 2.34315 20.6569 1 19 1Z"/>
</mask>
<path fillRule="evenodd" clipRule="evenodd" d="M19 1C17.3431 1 16 2.34315 16 4V10H14V12H24V10H22V4C22 2.34315 20.6569 1 19 1Z" fill="#71A4EA"/>
<path d="M16 10V11H17V10H16ZM14 10V9H13V10H14ZM14 12H13V13H14V12ZM24 12V13H25V12H24ZM24 10H25V9H24V10ZM22 10H21V11H22V10ZM17 4C17 2.89543 17.8954 2 19 2V0C16.7909 0 15 1.79086 15 4H17ZM17 10V4H15V10H17ZM14 11H16V9H14V11ZM15 12V10H13V12H15ZM24 11H14V13H24V11ZM23 10V12H25V10H23ZM22 11H24V9H22V11ZM21 4V10H23V4H21ZM19 2C20.1046 2 21 2.89543 21 4H23C23 1.79086 21.2091 0 19 0V2Z" fill="#46454C" mask="url(#path-19-outside-2)"/>
<rect x="10" y="21" width="3" height="9" fill="#46454C"/>
<rect y="26" width="10" height="1" fill="#46454C"/>
<rect y="28" width="10" height="1" fill="#46454C"/>
<rect y="24" width="10" height="1" fill="#46454C"/>
<rect y="22" width="10" height="1" fill="#46454C"/>
</svg>
