<svg width="37" height="32" viewBox="0 0 37 32" fill="none" xmlns="http://www.w3.org/2000/svg">
<rect x="0.5" y="0.5" width="32" height="20" rx="1.5" fill="#71A4EA" stroke="#46454C"/>
<rect x="10" y="21" width="13" height="3" fill="#46454C"/>
<rect x="6" y="24" width="21" height="2" fill="#46454C"/>
<rect x="13" y="7" width="5" height="1" fill="#46454C"/>
<rect x="20" y="15" width="10" height="1" fill="#46454C"/>
<rect x="11" y="15" width="4" height="1" fill="#46454C"/>
<rect x="16" y="17" width="14" height="1" fill="#46454C"/>
<rect x="3" y="17" width="12" height="1" fill="#46454C"/>
<rect x="3" y="15" width="7" height="1" fill="#46454C"/>
<rect x="18" y="13" width="7" height="1" fill="#46454C"/>
<rect x="26" y="13" width="2" height="1" fill="#46454C"/>
<rect x="6" y="13" width="9" height="1" fill="#46454C"/>
<rect x="21" y="11" width="9" height="1" fill="#46454C"/>
<rect x="6" y="11" width="9" height="1" fill="#46454C"/>
<rect x="15" y="9" width="15" height="1" fill="#46454C"/>
<rect x="3" y="9" width="11" height="1" fill="#46454C"/>
<rect x="20" y="7" width="10" height="1" fill="#46454C"/>
<rect x="13" y="3" width="10" height="1" fill="#46454C"/>
<rect x="13" y="5" width="10" height="1" fill="#46454C"/>
<path d="M4.5 3L2.5 4.5L4.5 5.5" stroke="#FBFBFB" strokeLinejoin="round"/>
<path d="M8 3L10 4.5L8 5.5" stroke="#FBFBFB" strokeLinejoin="round"/>
<path d="M7 2L5.5 6" stroke="#FBFBFB"/>
<path d="M16.5 12C16.5 11.7239 16.7239 11.5 17 11.5H36C36.2761 11.5 36.5 11.7239 36.5 12V17.5H16.5V12Z" fill="#9FA0B3" stroke="#46454C"/>
<circle cx="20.5" cy="14.5" r="1.5" fill="#FBFBFB" stroke="#46454C"/>
<circle cx="25.5" cy="14.5" r="1.5" fill="#FBFBFB" stroke="#46454C"/>
<path d="M16.5 31C16.5 31.2761 16.7239 31.5 17 31.5H36C36.2761 31.5 36.5 31.2761 36.5 31V19.5H16.5V31Z" fill="#9FA0B3" stroke="#46454C"/>
<circle cx="20" cy="23" r="1" fill="#9FA0B3" stroke="#FBFBFB"/>
<circle cx="23" cy="28" r="1" fill="#9FA0B3" stroke="#FBFBFB"/>
<circle cx="33" cy="28" r="1" fill="#9FA0B3" stroke="#FBFBFB"/>
<circle cx="30" cy="23" r="1" fill="#9FA0B3" stroke="#FBFBFB"/>
<rect x="23" y="22" width="1" height="2" rx="0.5" fill="#FBFBFB"/>
<rect x="26" y="22" width="1" height="2" rx="0.5" fill="#FBFBFB"/>
<rect x="26" y="27" width="1" height="2" rx="0.5" fill="#FBFBFB"/>
<rect x="29" y="27" width="1" height="2" rx="0.5" fill="#FBFBFB"/>
<rect x="19" y="27" width="1" height="2" rx="0.5" fill="#FBFBFB"/>
<rect x="33" y="22" width="1" height="2" rx="0.5" fill="#FBFBFB"/>
</svg>
