<svg width="33" height="33" viewBox="0 0 33 33" fill="none" xmlns="http://www.w3.org/2000/svg">
<mask id="path-1-inside-1" fill="white">
<path fill-rule="evenodd" clip-rule="evenodd" d="M7.92913 22.1677C7.64227 20.2983 7.5 18.3957 7.5 16.5C7.5 14.6043 7.64227 12.7017 7.92913 10.8323C6.00866 10.0437 4.20099 8.97541 2.58615 7.62742C0.948939 10.1895 0 13.2339 0 16.5C0 19.7661 0.948939 22.8105 2.58615 25.3726C4.20099 24.0246 6.00866 22.9563 7.92913 22.1677ZM8.52461 25.1768C7.05256 25.8377 5.66881 26.6939 4.42557 27.7455C6.24193 29.6948 8.52473 31.2039 11.0962 32.0948C9.97448 29.9507 9.11912 27.6129 8.52461 25.1768ZM11.368 24.1686C14.7045 23.2771 18.2955 23.2771 21.632 24.1686C20.8754 27.4047 19.6285 30.4159 17.9085 32.9407C17.4442 32.98 16.9744 33 16.5 33C16.0256 33 15.5558 32.98 15.0915 32.9407C13.3715 30.4159 12.1246 27.4047 11.368 24.1686ZM22.179 21.2107C18.4762 20.2631 14.5238 20.2631 10.821 21.2107C10.6076 19.6632 10.5 18.0844 10.5 16.5C10.5 14.9156 10.6076 13.3368 10.821 11.7893C14.5238 12.7369 18.4762 12.7369 22.179 11.7893C22.3924 13.3368 22.5 14.9156 22.5 16.5C22.5 18.0844 22.3924 19.6632 22.179 21.2107ZM24.4754 25.1768C23.8809 27.6129 23.0255 29.9507 21.9038 32.0948C24.4753 31.2039 26.7581 29.6948 28.5744 27.7455C27.3312 26.6939 25.9474 25.8377 24.4754 25.1768ZM30.4139 25.3726C28.799 24.0246 26.9913 22.9563 25.0709 22.1677C25.3577 20.2983 25.5 18.3957 25.5 16.5C25.5 14.6043 25.3577 12.7017 25.0709 10.8323C26.9913 10.0437 28.799 8.97541 30.4139 7.62742C32.0511 10.1895 33 13.2339 33 16.5C33 19.7661 32.0511 22.8105 30.4139 25.3726ZM15.0915 0.0592708C13.3715 2.58411 12.1246 5.5953 11.368 8.8314C14.7045 9.72287 18.2955 9.72287 21.632 8.8314C20.8754 5.5953 19.6285 2.58411 17.9085 0.0592707C17.4442 0.0200232 16.9744 0 16.5 0C16.0256 0 15.5558 0.0200233 15.0915 0.0592708ZM24.4754 7.82318C25.9474 7.16232 27.3312 6.3061 28.5744 5.25455C26.7581 3.30515 24.4753 1.79613 21.9038 0.905202C23.0255 3.04925 23.8809 5.38713 24.4754 7.82318ZM4.42557 5.25455C5.66881 6.3061 7.05256 7.16232 8.52461 7.82318C9.11912 5.38713 9.97448 3.04925 11.0962 0.905201C8.52473 1.79612 6.24193 3.30515 4.42557 5.25455Z"/>
</mask>
<path d="M7.92913 22.1677L8.30898 23.0927L9.03691 22.7938L8.91756 22.016L7.92913 22.1677ZM7.92913 10.8323L8.91756 10.984L9.03691 10.2062L8.30898 9.90727L7.92913 10.8323ZM2.58615 7.62742L3.22697 6.85973L2.35506 6.13191L1.7435 7.08896L2.58615 7.62742ZM2.58615 25.3726L1.7435 25.911L2.35506 26.8681L3.22697 26.1403L2.58615 25.3726ZM4.42557 27.7455L3.77977 26.9819L2.97868 27.6595L3.69394 28.4272L4.42557 27.7455ZM8.52461 25.1768L9.49609 24.9397L9.21121 23.7724L8.11504 24.2645L8.52461 25.1768ZM11.0962 32.0948L10.7689 33.0397L13.151 33.865L11.9823 31.6312L11.0962 32.0948ZM11.368 24.1686L11.1099 23.2025L10.1736 23.4526L10.3943 24.3963L11.368 24.1686ZM21.632 24.1686L22.6057 24.3963L22.8264 23.4526L21.8901 23.2025L21.632 24.1686ZM17.9085 32.9407L17.9927 33.9372L18.4669 33.8971L18.7349 33.5037L17.9085 32.9407ZM15.0915 32.9407L14.2651 33.5037L14.5331 33.8971L15.0073 33.9372L15.0915 32.9407ZM22.179 21.2107L21.9311 22.1794L23.0165 22.4572L23.1696 21.3473L22.179 21.2107ZM10.821 21.2107L9.83041 21.3473L9.9835 22.4572L11.0689 22.1794L10.821 21.2107ZM10.821 11.7893L11.0689 10.8206L9.9835 10.5428L9.83041 11.6527L10.821 11.7893ZM22.179 11.7893L23.1696 11.6527L23.0165 10.5428L21.9311 10.8206L22.179 11.7893ZM24.4754 25.1768L24.885 24.2645L23.7888 23.7724L23.5039 24.9397L24.4754 25.1768ZM21.9038 32.0948L21.0177 31.6312L19.849 33.865L22.2311 33.0397L21.9038 32.0948ZM28.5744 27.7455L29.3061 28.4272L30.0213 27.6595L29.2202 26.9819L28.5744 27.7455ZM30.4139 25.3726L29.773 26.1403L30.6449 26.8681L31.2565 25.911L30.4139 25.3726ZM25.0709 22.1677L24.0824 22.016L23.9631 22.7938L24.691 23.0927L25.0709 22.1677ZM25.0709 10.8323L24.691 9.90727L23.9631 10.2062L24.0824 10.984L25.0709 10.8323ZM30.4139 7.62742L31.2565 7.08896L30.6449 6.1319L29.773 6.85973L30.4139 7.62742ZM11.368 8.8314L10.3943 8.60374L10.1736 9.54737L11.1099 9.79751L11.368 8.8314ZM15.0915 0.0592708L15.0073 -0.937175L14.5331 -0.897084L14.2651 -0.503742L15.0915 0.0592708ZM21.632 8.8314L21.8901 9.79751L22.8264 9.54737L22.6057 8.60374L21.632 8.8314ZM17.9085 0.0592707L18.7349 -0.503743L18.4669 -0.897085L17.9927 -0.937175L17.9085 0.0592707ZM28.5744 5.25455L29.2202 6.01806L30.0213 5.34049L29.3061 4.57285L28.5744 5.25455ZM24.4754 7.82318L23.5039 8.06027L23.7888 9.22758L24.885 8.73546L24.4754 7.82318ZM21.9038 0.905202L22.2311 -0.0396954L19.849 -0.865007L21.0177 1.36878L21.9038 0.905202ZM8.52461 7.82318L8.11504 8.73546L9.21121 9.22758L9.49609 8.06027L8.52461 7.82318ZM4.42557 5.25455L3.69394 4.57285L2.97868 5.34048L3.77977 6.01806L4.42557 5.25455ZM11.0962 0.905201L11.9823 1.36878L13.151 -0.865008L10.7689 -0.0396956L11.0962 0.905201ZM6.5 16.5C6.5 18.4454 6.64598 20.3987 6.9407 22.3194L8.91756 22.016C8.63856 20.1979 8.5 18.346 8.5 16.5H6.5ZM6.9407 10.6806C6.64598 12.6013 6.5 14.5546 6.5 16.5H8.5C8.5 14.654 8.63856 12.8021 8.91756 10.984L6.9407 10.6806ZM1.94532 8.39511C3.64265 9.81195 5.53928 10.932 7.54927 11.7574L8.30898 9.90727C6.47803 9.15542 4.75933 8.13887 3.22697 6.85973L1.94532 8.39511ZM1 16.5C1 13.4304 1.89128 10.572 3.4288 8.16588L1.7435 7.08896C0.00660232 9.80707 -1 13.0375 -1 16.5H1ZM3.4288 24.8341C1.89128 22.428 1 19.5696 1 16.5H-1C-1 19.9625 0.00660226 23.1929 1.7435 25.911L3.4288 24.8341ZM7.54927 21.2426C5.53928 22.068 3.64265 23.1881 1.94532 24.6049L3.22697 26.1403C4.75933 24.8611 6.47803 23.8446 8.30898 23.0927L7.54927 21.2426ZM5.07136 28.509C6.23948 27.5209 7.54287 26.7137 8.93417 26.0891L8.11504 24.2645C6.56224 24.9617 5.09814 25.8668 3.77977 26.9819L5.07136 28.509ZM11.4236 31.1499C9.00927 30.3134 6.86445 28.8961 5.1572 27.0638L3.69394 28.4272C5.6194 30.4936 8.0402 32.0943 10.7689 33.0397L11.4236 31.1499ZM7.55312 25.4139C8.16484 27.9205 9.04718 30.3355 10.2102 32.5584L11.9823 31.6312C10.9018 29.566 10.0734 27.3053 9.49609 24.9397L7.55312 25.4139ZM11.6261 25.1347C14.7935 24.2884 18.2065 24.2884 21.3739 25.1347L21.8901 23.2025C18.3845 22.2658 14.6155 22.2658 11.1099 23.2025L11.6261 25.1347ZM18.7349 33.5037C20.535 30.8613 21.8258 27.7321 22.6057 24.3963L20.6583 23.9409C19.925 27.0773 18.722 29.9704 17.082 32.3777L18.7349 33.5037ZM16.5 34C17.0026 34 17.5004 33.9788 17.9927 33.9372L17.8242 31.9443C17.3879 31.9812 16.9463 32 16.5 32V34ZM15.0073 33.9372C15.4996 33.9788 15.9974 34 16.5 34V32C16.0537 32 15.6121 31.9812 15.1758 31.9443L15.0073 33.9372ZM10.3943 24.3963C11.1742 27.7321 12.465 30.8613 14.2651 33.5037L15.918 32.3777C14.278 29.9704 13.075 27.0773 12.3417 23.9409L10.3943 24.3963ZM22.4269 20.2419C18.5614 19.2527 14.4386 19.2527 10.5731 20.2419L11.0689 22.1794C14.6091 21.2735 18.3909 21.2735 21.9311 22.1794L22.4269 20.2419ZM9.5 16.5C9.5 18.1294 9.61062 19.7539 9.83041 21.3473L11.8116 21.074C11.6045 19.5725 11.5 18.0393 11.5 16.5H9.5ZM9.83041 11.6527C9.61062 13.2461 9.5 14.8706 9.5 16.5H11.5C11.5 14.9607 11.6045 13.4275 11.8116 11.926L9.83041 11.6527ZM21.9311 10.8206C18.3909 11.7265 14.6091 11.7265 11.0689 10.8206L10.5731 12.7581C14.4386 13.7473 18.5614 13.7473 22.4269 12.7581L21.9311 10.8206ZM23.5 16.5C23.5 14.8706 23.3894 13.2461 23.1696 11.6527L21.1884 11.926C21.3955 13.4275 21.5 14.9607 21.5 16.5H23.5ZM23.1696 21.3473C23.3894 19.7539 23.5 18.1294 23.5 16.5H21.5C21.5 18.0393 21.3955 19.5725 21.1884 21.074L23.1696 21.3473ZM23.5039 24.9397C22.9266 27.3053 22.0982 29.566 21.0177 31.6312L22.7898 32.5584C23.9528 30.3355 24.8352 27.9205 25.4469 25.4139L23.5039 24.9397ZM22.2311 33.0397C24.9598 32.0943 27.3806 30.4936 29.3061 28.4272L27.8428 27.0638C26.1356 28.8961 23.9907 30.3134 21.5764 31.1499L22.2311 33.0397ZM24.0658 26.0891C25.4571 26.7137 26.7605 27.5209 27.9286 28.509L29.2202 26.9819C27.9019 25.8668 26.4378 24.9617 24.885 24.2645L24.0658 26.0891ZM31.0547 24.6049C29.3574 23.1881 27.4607 22.068 25.4507 21.2426L24.691 23.0927C26.522 23.8446 28.2407 24.8611 29.773 26.1403L31.0547 24.6049ZM24.5 16.5C24.5 18.346 24.3614 20.1979 24.0824 22.016L26.0593 22.3194C26.354 20.3987 26.5 18.4454 26.5 16.5H24.5ZM24.0824 10.984C24.3614 12.8021 24.5 14.654 24.5 16.5H26.5C26.5 14.5546 26.354 12.6013 26.0593 10.6806L24.0824 10.984ZM29.773 6.85973C28.2407 8.13887 26.522 9.15542 24.691 9.90727L25.4507 11.7574C27.4607 10.932 29.3574 9.81195 31.0547 8.39511L29.773 6.85973ZM34 16.5C34 13.0375 32.9934 9.80707 31.2565 7.08896L29.5712 8.16588C31.1087 10.572 32 13.4304 32 16.5H34ZM31.2565 25.911C32.9934 23.1929 34 19.9625 34 16.5H32C32 19.5696 31.1087 22.428 29.5712 24.8341L31.2565 25.911ZM12.3417 9.05907C13.075 5.92271 14.278 3.02956 15.918 0.622284L14.2651 -0.503742C12.465 2.13866 11.1742 5.26788 10.3943 8.60374L12.3417 9.05907ZM21.3739 7.86529C18.2065 8.71157 14.7935 8.71157 11.6261 7.86529L11.1099 9.79751C14.6155 10.7342 18.3845 10.7342 21.8901 9.79751L21.3739 7.86529ZM17.082 0.622284C18.722 3.02955 19.925 5.92271 20.6583 9.05907L22.6057 8.60374C21.8258 5.26788 20.535 2.13866 18.7349 -0.503743L17.082 0.622284ZM16.5 1C16.9463 1 17.3879 1.01883 17.8242 1.05572L17.9927 -0.937175C17.5004 -0.978788 17.0026 -1 16.5 -1V1ZM15.1758 1.05572C15.6121 1.01883 16.0537 1 16.5 1V-1C15.9974 -1 15.4996 -0.978788 15.0073 -0.937175L15.1758 1.05572ZM27.9286 4.49103C26.7605 5.47905 25.4571 6.28629 24.0658 6.9109L24.885 8.73546C26.4378 8.03835 27.9019 7.13316 29.2202 6.01806L27.9286 4.49103ZM21.5764 1.8501C23.9907 2.68657 26.1356 4.10395 27.8428 5.93625L29.3061 4.57285C27.3806 2.50635 24.9598 0.90568 22.2311 -0.0396954L21.5764 1.8501ZM25.4469 7.58609C24.8352 5.07952 23.9528 2.66451 22.7898 0.44162L21.0177 1.36878C22.0982 3.434 22.9266 5.69474 23.5039 8.06027L25.4469 7.58609ZM8.93417 6.9109C7.54287 6.28629 6.23948 5.47905 5.07136 4.49103L3.77977 6.01806C5.09814 7.13316 6.56224 8.03835 8.11504 8.73546L8.93417 6.9109ZM10.2102 0.441619C9.04718 2.66451 8.16484 5.07952 7.55312 7.58609L9.49609 8.06027C10.0734 5.69474 10.9018 3.434 11.9823 1.36878L10.2102 0.441619ZM5.1572 5.93625C6.86445 4.10395 9.00927 2.68657 11.4236 1.8501L10.7689 -0.0396956C8.0402 0.90568 5.6194 2.50635 3.69394 4.57285L5.1572 5.93625Z" fill="#46454C" mask="url(#path-1-inside-1)"/>
</svg>
